<svg id="svg" version="1.1" xmlns="http://www.w3.org/2000/svg" xmlns:xlink="http://www.w3.org/1999/xlink" width="400" height="400" viewBox="0, 0, 400,400"><g id="svgg"><path id="path0" d="M142.980 66.779 C 142.771 66.987,141.835 67.202,140.900 67.257 C 139.965 67.312,139.200 67.501,139.200 67.678 C 139.200 67.855,138.108 68.000,136.774 68.000 C 135.439 68.000,134.019 68.176,133.617 68.391 C 133.216 68.606,132.243 68.861,131.457 68.959 C 130.670 69.057,129.815 69.267,129.556 69.427 C 129.297 69.587,128.574 69.704,127.949 69.686 C 127.325 69.668,126.710 69.822,126.583 70.027 C 126.457 70.232,126.003 70.400,125.576 70.400 C 125.149 70.400,124.800 70.542,124.800 70.715 C 124.800 70.983,123.667 71.201,121.717 71.307 C 121.452 71.322,121.146 71.564,121.038 71.845 C 120.905 72.192,120.384 72.282,119.421 72.126 C 118.495 71.976,118.000 72.053,118.000 72.348 C 118.000 72.596,117.460 72.800,116.800 72.800 C 116.000 72.800,115.600 73.000,115.600 73.400 C 115.600 73.800,115.200 74.000,114.400 74.000 C 113.740 74.000,113.200 74.180,113.200 74.400 C 113.200 74.620,112.855 74.800,112.433 74.800 C 112.012 74.800,111.575 75.025,111.464 75.300 C 111.311 75.676,111.156 75.652,110.837 75.200 C 110.549 74.793,110.410 74.761,110.406 75.100 C 110.403 75.375,109.950 75.600,109.400 75.600 C 108.850 75.600,108.400 75.780,108.400 76.000 C 108.400 76.220,107.950 76.400,107.400 76.400 C 106.850 76.400,106.400 76.580,106.400 76.800 C 106.400 77.020,106.040 77.200,105.600 77.200 C 105.160 77.200,104.800 77.380,104.800 77.600 C 104.800 77.820,104.249 78.000,103.576 78.000 C 102.903 78.000,102.435 78.135,102.534 78.300 C 102.634 78.465,102.465 78.832,102.158 79.116 C 101.836 79.413,101.600 79.456,101.600 79.216 C 101.600 78.987,101.330 78.800,101.000 78.800 C 100.670 78.800,100.400 79.053,100.400 79.363 C 100.400 79.738,100.100 79.859,99.500 79.728 C 98.777 79.569,98.718 79.615,99.200 79.959 C 99.806 80.392,99.112 80.612,97.706 80.431 C 97.403 80.392,97.311 80.623,97.467 81.030 C 97.671 81.561,97.551 81.638,96.865 81.421 C 96.071 81.169,93.593 82.174,93.274 82.878 C 93.205 83.030,92.913 83.065,92.626 82.955 C 92.338 82.844,91.996 83.034,91.864 83.377 C 91.733 83.720,91.349 84.000,91.013 84.000 C 90.676 84.000,90.400 84.180,90.400 84.400 C 90.400 84.620,90.265 84.779,90.100 84.753 C 89.303 84.627,88.778 84.840,89.000 85.200 C 89.140 85.427,88.804 85.600,88.224 85.600 C 87.661 85.600,87.200 85.780,87.200 86.000 C 87.200 86.220,86.829 86.400,86.376 86.400 C 85.923 86.400,85.664 86.580,85.800 86.800 C 85.936 87.020,85.767 87.200,85.424 87.200 C 85.081 87.200,84.800 87.380,84.800 87.600 C 84.800 87.820,84.429 88.000,83.976 88.000 C 83.523 88.000,83.264 88.180,83.400 88.400 C 83.536 88.620,83.457 88.800,83.224 88.800 C 82.991 88.800,82.795 88.575,82.788 88.300 C 82.781 88.025,82.590 88.119,82.363 88.508 C 82.136 88.898,81.782 89.112,81.575 88.985 C 81.369 88.857,81.200 88.943,81.200 89.176 C 81.200 89.409,80.840 89.600,80.400 89.600 C 79.960 89.600,79.600 89.850,79.600 90.156 C 79.600 90.461,79.285 90.686,78.900 90.656 C 78.515 90.625,78.243 90.819,78.295 91.086 C 78.350 91.368,78.139 91.475,77.791 91.341 C 77.358 91.175,77.262 91.296,77.446 91.776 C 77.660 92.332,77.520 92.395,76.591 92.162 C 75.853 91.977,75.568 92.025,75.742 92.306 C 76.164 92.989,75.576 94.000,74.757 94.000 C 74.341 94.000,74.000 94.180,74.000 94.400 C 74.000 94.620,73.659 94.800,73.243 94.800 C 72.826 94.800,72.372 95.096,72.233 95.457 C 72.095 95.819,71.871 96.004,71.736 95.869 C 71.601 95.734,70.992 95.978,70.383 96.412 C 69.775 96.845,69.071 97.200,68.820 97.200 C 68.159 97.200,66.400 99.059,66.400 99.758 C 66.400 100.085,66.192 100.481,65.938 100.638 C 65.654 100.814,65.585 100.748,65.759 100.466 C 65.942 100.171,65.822 100.093,65.421 100.247 C 65.079 100.378,64.800 100.781,64.800 101.143 C 64.799 101.504,64.361 102.310,63.825 102.933 C 63.289 103.556,62.949 104.323,63.070 104.637 C 63.229 105.053,63.094 105.134,62.575 104.935 C 62.017 104.721,61.918 104.810,62.124 105.346 C 62.290 105.780,62.158 106.118,61.761 106.270 C 61.388 106.414,61.214 106.811,61.330 107.255 C 61.445 107.694,61.316 108.000,61.015 108.000 C 60.734 108.000,60.505 108.315,60.507 108.700 C 60.512 110.077,60.394 110.444,60.020 110.212 C 59.811 110.083,59.433 110.364,59.180 110.837 C 58.809 111.531,58.824 111.645,59.260 111.430 C 59.557 111.283,59.395 111.463,58.900 111.830 C 58.029 112.476,57.591 113.500,58.400 113.000 C 58.620 112.864,58.800 112.921,58.800 113.127 C 58.800 113.670,57.773 114.440,57.463 114.130 C 57.318 113.985,57.200 114.257,57.200 114.733 C 57.200 115.210,57.020 115.600,56.800 115.600 C 56.580 115.600,56.400 115.960,56.400 116.400 C 56.400 116.840,56.175 117.203,55.900 117.206 C 55.531 117.211,55.541 117.302,55.941 117.555 C 56.364 117.823,56.280 118.039,55.552 118.549 C 55.040 118.907,54.842 119.200,55.111 119.200 C 55.380 119.200,55.600 119.391,55.600 119.624 C 55.600 119.857,55.465 119.965,55.300 119.866 C 55.008 119.689,53.975 120.578,53.992 120.992 C 54.066 122.841,53.956 123.351,53.600 122.800 C 53.284 122.312,53.211 122.362,53.206 123.071 C 53.203 123.551,52.919 124.224,52.574 124.568 C 52.230 124.912,52.054 125.364,52.183 125.572 C 52.312 125.781,52.120 126.117,51.757 126.320 C 51.394 126.523,51.181 126.940,51.283 127.245 C 51.386 127.550,51.184 128.022,50.835 128.292 C 50.274 128.727,50.270 128.832,50.800 129.186 C 51.319 129.533,51.308 129.589,50.724 129.594 C 50.352 129.597,49.919 129.808,49.762 130.062 C 49.568 130.375,49.657 130.415,50.038 130.185 C 50.515 129.897,50.518 129.948,50.055 130.518 C 49.756 130.888,49.615 131.462,49.743 131.795 C 49.885 132.166,49.747 132.400,49.387 132.400 C 49.064 132.400,48.800 132.749,48.800 133.176 C 48.800 133.603,48.620 134.064,48.400 134.200 C 48.180 134.336,48.000 134.761,48.000 135.144 C 48.000 136.019,47.101 137.993,46.700 137.997 C 46.535 137.999,46.400 138.360,46.400 138.800 C 46.400 139.240,46.220 139.600,46.000 139.600 C 45.780 139.600,45.600 140.140,45.600 140.800 C 45.600 141.460,45.420 142.000,45.200 142.000 C 44.980 142.000,44.821 142.135,44.847 142.300 C 45.037 143.501,44.733 145.606,44.400 145.400 C 44.180 145.264,44.000 145.411,44.000 145.727 C 44.000 146.043,43.747 146.512,43.437 146.769 C 43.128 147.026,42.922 147.673,42.981 148.207 C 43.040 148.741,42.946 149.090,42.773 148.983 C 42.403 148.755,41.921 150.073,42.086 150.859 C 42.149 151.156,41.961 151.350,41.669 151.290 C 41.315 151.216,41.162 151.551,41.211 152.290 C 41.326 154.027,41.232 154.467,40.800 154.200 C 40.577 154.062,40.403 154.361,40.406 154.876 C 40.411 155.619,40.488 155.683,40.800 155.200 C 41.323 154.391,41.307 155.053,40.780 156.037 C 40.549 156.469,40.189 156.717,39.980 156.588 C 39.771 156.458,39.600 156.723,39.600 157.176 C 39.600 157.629,39.375 158.003,39.100 158.006 C 38.767 158.010,38.800 158.142,39.200 158.400 C 39.600 158.658,39.633 158.790,39.300 158.794 C 39.025 158.797,38.800 159.149,38.800 159.576 C 38.800 160.003,38.620 160.464,38.400 160.600 C 38.180 160.736,38.000 161.276,38.000 161.800 C 38.000 162.324,37.820 162.864,37.600 163.000 C 37.380 163.136,37.200 163.957,37.200 164.824 C 37.200 165.691,37.020 166.400,36.800 166.400 C 36.580 166.400,36.400 166.749,36.400 167.176 C 36.400 167.603,36.201 168.076,35.957 168.226 C 35.648 168.418,35.678 168.615,36.057 168.880 C 36.479 169.176,36.489 169.306,36.100 169.464 C 35.825 169.575,35.600 170.202,35.600 170.857 C 35.600 171.512,35.458 171.960,35.285 171.852 C 35.112 171.745,34.930 172.140,34.881 172.729 C 34.833 173.318,34.615 173.860,34.397 173.933 C 34.178 174.007,34.000 174.570,34.000 175.184 C 34.000 175.799,33.714 176.539,33.365 176.829 C 32.952 177.172,32.783 177.807,32.882 178.650 C 32.965 179.362,32.890 179.856,32.716 179.748 C 32.212 179.436,32.351 180.190,32.900 180.744 C 33.301 181.148,33.261 181.195,32.700 180.981 C 32.147 180.770,32.000 180.928,32.000 181.734 C 32.000 182.294,31.801 182.876,31.557 183.026 C 31.249 183.217,31.279 183.404,31.657 183.644 C 32.057 183.897,32.068 183.989,31.700 183.994 C 31.425 183.997,31.200 184.191,31.200 184.424 C 31.200 184.657,31.421 184.711,31.693 184.543 C 31.964 184.375,31.784 184.749,31.293 185.373 C 30.778 186.027,30.400 187.068,30.400 187.830 C 30.400 188.558,30.220 189.264,30.000 189.400 C 29.780 189.536,29.600 190.256,29.600 191.000 C 29.600 191.744,29.400 192.477,29.155 192.628 C 28.877 192.799,28.778 193.727,28.891 195.089 C 29.023 196.679,28.926 197.330,28.536 197.480 C 28.241 197.593,28.000 198.116,28.000 198.643 C 28.000 199.169,27.820 199.600,27.600 199.600 C 27.380 199.600,27.200 199.791,27.200 200.024 C 27.200 200.257,27.379 200.336,27.599 200.201 C 27.864 200.037,27.864 200.306,27.599 201.003 C 27.379 201.580,27.187 202.715,27.172 203.526 C 27.149 204.715,27.077 204.845,26.800 204.200 C 26.541 203.598,26.449 203.870,26.428 205.300 C 26.413 206.345,26.243 207.200,26.051 207.200 C 25.859 207.200,25.685 208.029,25.664 209.042 C 25.644 210.056,25.462 211.091,25.261 211.342 C 25.059 211.594,24.897 212.602,24.901 213.582 C 24.906 214.563,24.705 215.432,24.455 215.515 C 24.178 215.607,24.000 216.672,24.000 218.233 C 24.000 220.179,23.863 220.800,23.434 220.800 C 23.025 220.800,22.880 221.294,22.911 222.590 C 22.935 223.574,22.842 224.492,22.705 224.629 C 22.567 224.766,22.545 225.112,22.655 225.399 C 22.765 225.685,22.662 226.038,22.427 226.183 C 21.833 226.551,21.890 227.999,22.500 228.006 C 22.855 228.010,22.837 228.115,22.438 228.368 C 22.125 228.566,21.893 229.310,21.914 230.046 C 21.942 231.025,21.851 231.217,21.565 230.784 C 21.304 230.390,21.222 231.205,21.312 233.285 C 21.421 235.790,21.348 236.289,20.923 235.936 C 20.501 235.586,20.400 236.011,20.400 238.127 C 20.400 239.571,20.233 240.856,20.028 240.983 C 19.823 241.109,19.652 242.499,19.647 244.071 C 19.642 245.670,19.448 247.047,19.207 247.196 C 18.667 247.530,18.823 249.998,19.385 250.006 C 19.613 250.009,19.530 250.187,19.200 250.400 C 18.729 250.705,18.718 250.789,19.149 250.794 C 19.583 250.799,19.597 250.921,19.217 251.380 C 18.952 251.699,18.768 252.554,18.808 253.280 C 18.923 255.365,18.795 255.923,18.412 255.000 C 18.201 254.491,18.071 255.572,18.056 257.966 C 18.043 260.038,17.890 261.838,17.716 261.966 C 17.305 262.270,17.310 263.661,17.724 264.300 C 17.915 264.596,17.862 264.800,17.593 264.800 C 17.333 264.800,17.169 265.355,17.210 266.100 C 17.388 269.350,17.171 273.230,16.824 273.015 C 16.618 272.887,16.475 273.134,16.507 273.564 C 16.540 273.993,16.709 274.256,16.883 274.149 C 17.057 274.041,17.200 274.244,17.200 274.600 C 17.200 274.956,17.020 275.136,16.800 275.000 C 16.542 274.840,16.400 276.448,16.400 279.534 C 16.400 283.390,16.515 284.358,16.993 284.542 C 17.331 284.672,17.485 285.035,17.350 285.385 C 17.134 285.948,17.818 286.231,18.930 286.037 C 19.111 286.006,19.135 286.182,18.983 286.428 C 18.639 286.983,19.591 288.853,20.067 288.559 C 20.257 288.441,20.292 288.149,20.145 287.911 C 19.988 287.658,20.062 287.591,20.321 287.751 C 20.565 287.902,20.665 288.285,20.544 288.603 C 20.215 289.458,21.482 290.596,22.148 290.043 C 22.683 289.599,23.200 289.829,23.200 290.509 C 23.200 290.716,22.930 290.782,22.600 290.655 C 22.270 290.529,22.000 290.599,22.000 290.813 C 22.000 291.026,22.270 291.200,22.600 291.200 C 22.930 291.200,23.213 291.425,23.228 291.700 C 23.244 291.975,23.411 291.840,23.600 291.400 C 23.924 290.646,23.945 290.653,23.972 291.529 C 24.002 292.517,24.938 293.728,25.352 293.314 C 25.489 293.178,25.600 293.367,25.600 293.733 C 25.600 294.140,25.922 294.400,26.424 294.400 C 26.877 294.400,27.145 294.565,27.020 294.768 C 26.724 295.247,27.953 296.476,28.432 296.180 C 28.635 296.055,28.800 296.244,28.800 296.600 C 28.800 296.956,28.980 297.136,29.200 297.000 C 29.420 296.864,29.600 296.956,29.600 297.205 C 29.600 297.687,30.574 298.800,30.995 298.800 C 31.134 298.800,31.125 298.602,30.975 298.360 C 30.784 298.051,30.956 298.055,31.552 298.374 C 32.519 298.892,32.706 299.403,31.800 299.055 C 30.429 298.529,31.334 299.593,32.904 300.353 C 33.841 300.807,34.868 301.539,35.186 301.980 C 35.577 302.523,35.855 302.635,36.046 302.326 C 36.241 302.009,36.552 302.097,37.064 302.613 C 37.735 303.289,37.738 303.332,37.100 303.090 C 36.715 302.944,36.400 302.988,36.400 303.187 C 36.400 303.386,36.985 303.606,37.700 303.675 C 38.455 303.747,38.960 304.004,38.905 304.286 C 38.845 304.591,39.067 304.675,39.505 304.511 C 40.101 304.287,40.125 304.342,39.677 304.894 C 39.223 305.452,39.264 305.508,39.983 305.320 C 40.603 305.158,40.754 305.255,40.582 305.703 C 40.414 306.142,40.733 306.373,41.776 306.569 C 42.559 306.716,43.200 307.019,43.200 307.242 C 43.200 307.465,42.992 307.519,42.738 307.362 C 42.452 307.185,42.385 307.252,42.562 307.538 C 42.719 307.792,43.107 308.000,43.424 308.000 C 43.741 308.000,44.000 308.192,44.000 308.427 C 44.000 308.672,44.341 308.746,44.800 308.600 C 45.383 308.415,45.600 308.528,45.600 309.016 C 45.600 309.440,45.815 309.603,46.187 309.460 C 46.510 309.336,46.871 309.392,46.990 309.583 C 47.108 309.775,46.979 310.023,46.702 310.134 C 46.426 310.246,46.855 310.351,47.656 310.368 C 48.786 310.393,49.099 310.557,49.056 311.100 C 49.020 311.544,49.331 311.847,49.906 311.928 C 50.404 311.999,50.709 312.224,50.582 312.429 C 50.456 312.633,50.993 312.800,51.776 312.800 C 52.559 312.800,53.200 312.980,53.200 313.200 C 53.200 313.420,53.458 313.600,53.773 313.600 C 54.088 313.600,54.446 313.915,54.568 314.300 C 54.780 314.966,56.681 316.079,57.283 315.889 C 57.438 315.840,57.838 316.160,58.170 316.600 C 58.503 317.040,58.780 317.237,58.787 317.038 C 58.794 316.839,59.115 316.929,59.500 317.238 C 60.283 317.866,61.886 318.800,62.182 318.800 C 62.288 318.800,62.261 318.485,62.121 318.100 C 61.953 317.637,62.171 317.739,62.764 318.400 C 63.257 318.950,63.544 319.130,63.401 318.800 C 63.231 318.408,63.340 318.443,63.714 318.900 C 64.030 319.285,64.684 319.600,65.168 319.600 C 65.652 319.600,65.936 319.780,65.800 320.000 C 65.653 320.238,66.168 320.411,67.076 320.428 C 68.293 320.451,68.439 320.525,67.800 320.800 C 67.025 321.133,67.027 321.145,67.867 321.172 C 68.343 321.187,68.809 321.335,68.901 321.500 C 68.993 321.665,69.018 321.584,68.955 321.320 C 68.799 320.664,70.030 321.153,70.847 322.072 C 71.203 322.473,71.878 322.800,72.347 322.800 C 72.816 322.800,73.200 322.980,73.200 323.200 C 73.200 323.420,73.335 323.579,73.500 323.553 C 74.701 323.363,76.806 323.667,76.600 324.000 C 76.464 324.220,76.704 324.400,77.134 324.400 C 77.563 324.400,78.025 324.689,78.161 325.042 C 78.296 325.394,78.655 325.588,78.957 325.472 C 79.260 325.355,79.900 325.535,80.379 325.870 C 80.858 326.206,81.610 326.386,82.049 326.271 C 82.539 326.143,82.937 326.292,83.077 326.656 C 83.209 327.000,83.745 327.221,84.352 327.182 C 84.929 327.145,85.760 327.147,86.200 327.186 L 87.000 327.256 86.200 327.624 C 85.583 327.908,85.735 327.958,86.868 327.844 C 87.676 327.763,88.531 327.891,88.768 328.128 C 89.006 328.366,89.200 328.412,89.200 328.231 C 89.200 328.050,89.468 328.124,89.795 328.396 C 90.122 328.667,90.647 328.791,90.962 328.670 C 91.279 328.548,91.647 328.746,91.788 329.114 C 92.008 329.686,92.094 329.696,92.415 329.189 C 92.620 328.865,92.791 328.800,92.794 329.043 C 92.797 329.287,94.150 329.718,95.800 330.000 C 97.450 330.282,98.803 330.713,98.806 330.957 C 98.809 331.200,98.987 331.130,99.200 330.800 C 99.456 330.405,99.590 330.370,99.594 330.697 C 99.598 331.024,100.175 331.172,101.277 331.129 C 102.257 331.090,103.019 331.258,103.110 331.531 C 103.318 332.153,104.280 332.132,104.535 331.500 C 104.696 331.100,104.743 331.100,104.768 331.500 C 104.788 331.811,105.404 332.000,106.400 332.000 C 107.410 332.000,108.002 332.184,108.006 332.500 C 108.010 332.833,108.142 332.800,108.400 332.400 C 108.658 332.000,108.790 331.967,108.794 332.300 C 108.797 332.575,108.991 332.800,109.224 332.800 C 109.457 332.800,109.512 332.575,109.347 332.300 C 109.120 331.922,109.187 331.906,109.623 332.235 C 109.940 332.474,111.010 332.708,112.000 332.755 C 112.990 332.802,113.863 333.019,113.939 333.237 C 114.022 333.474,114.335 333.425,114.716 333.117 C 115.067 332.833,115.236 332.797,115.092 333.037 C 114.641 333.790,125.894 333.763,126.648 333.009 C 126.980 332.678,127.122 332.197,126.964 331.941 C 126.792 331.663,126.850 331.584,127.111 331.745 C 127.349 331.892,127.658 331.830,127.796 331.607 C 127.934 331.383,127.722 331.186,127.324 331.168 C 126.849 331.148,126.988 330.996,127.727 330.726 C 128.415 330.475,128.773 330.107,128.647 329.778 C 128.511 329.424,128.649 329.321,129.050 329.475 C 129.485 329.641,129.623 329.492,129.530 328.954 C 129.454 328.514,129.608 328.242,129.900 328.300 C 130.175 328.355,130.379 328.265,130.353 328.100 C 130.223 327.279,130.471 326.831,131.180 326.606 C 131.621 326.466,131.869 326.125,131.752 325.818 C 131.636 325.517,132.360 324.461,133.383 323.439 C 134.394 322.427,135.048 321.600,134.836 321.600 C 134.624 321.600,134.935 321.096,135.526 320.481 C 136.116 319.865,136.693 319.400,136.807 319.446 C 136.920 319.493,137.211 319.112,137.453 318.599 C 137.776 317.915,137.774 317.689,137.447 317.754 C 137.201 317.802,137.410 317.661,137.912 317.440 C 138.431 317.210,138.734 316.805,138.616 316.498 C 138.502 316.201,138.588 316.069,138.807 316.205 C 139.026 316.340,139.312 316.174,139.442 315.836 C 139.817 314.857,138.607 314.000,136.852 314.000 C 135.152 314.000,134.310 313.408,135.495 313.045 C 135.883 312.926,135.717 312.885,135.126 312.954 C 134.535 313.023,133.815 312.909,133.526 312.702 C 133.139 312.424,133.185 312.384,133.700 312.550 C 134.085 312.674,134.400 312.601,134.400 312.387 C 134.400 312.174,133.860 312.000,133.200 312.000 C 132.540 312.000,132.000 311.801,132.000 311.557 C 132.000 311.314,131.743 311.213,131.429 311.333 C 131.115 311.454,130.655 311.308,130.407 311.008 C 130.138 310.684,129.392 310.517,128.560 310.594 C 127.318 310.709,127.220 310.651,127.670 310.062 C 127.947 309.698,128.014 309.536,127.819 309.701 C 127.624 309.867,127.022 309.714,126.483 309.360 C 125.943 309.006,125.624 308.916,125.774 309.159 C 126.260 309.944,125.395 309.626,124.800 308.800 C 124.483 308.360,123.903 308.000,123.512 308.000 C 123.120 308.000,122.800 307.820,122.800 307.600 C 122.800 307.380,122.361 307.200,121.824 307.200 C 121.287 307.200,120.736 307.020,120.600 306.800 C 120.464 306.580,119.903 306.400,119.353 306.400 C 118.788 306.400,118.460 306.226,118.600 306.000 C 118.738 305.777,118.434 305.600,117.912 305.600 C 117.397 305.600,116.717 305.240,116.400 304.800 C 116.027 304.283,115.365 304.000,114.524 304.000 C 113.650 304.000,113.288 303.837,113.416 303.500 C 113.609 302.998,110.682 301.197,109.676 301.199 C 109.378 301.200,109.277 300.998,109.442 300.732 C 109.631 300.426,109.521 300.345,109.124 300.497 C 108.784 300.628,108.224 300.387,107.848 299.948 C 107.480 299.518,107.003 299.274,106.789 299.407 C 106.575 299.539,106.400 299.457,106.400 299.224 C 106.400 298.991,106.119 298.800,105.776 298.800 C 105.433 298.800,105.264 298.620,105.400 298.400 C 105.542 298.170,105.170 297.997,104.524 297.994 C 103.651 297.989,103.534 297.901,104.000 297.600 C 104.485 297.286,104.428 297.211,103.700 297.206 C 103.205 297.203,102.800 297.020,102.800 296.800 C 102.800 296.580,102.459 296.400,102.042 296.400 C 101.625 296.400,100.869 295.969,100.363 295.443 C 99.856 294.917,99.207 294.576,98.921 294.686 C 98.634 294.796,98.400 294.686,98.400 294.443 C 98.400 294.199,97.995 293.987,97.500 293.972 C 96.673 293.946,96.663 293.919,97.373 293.641 C 97.905 293.433,97.999 293.247,97.673 293.045 C 97.413 292.884,97.032 292.856,96.828 292.983 C 96.623 293.109,96.325 293.002,96.166 292.745 C 95.973 292.433,96.064 292.376,96.438 292.573 C 96.747 292.736,96.550 292.503,96.000 292.054 C 95.347 291.522,94.653 291.311,94.000 291.447 C 93.088 291.636,93.061 291.605,93.691 291.090 C 94.332 290.566,94.304 290.485,93.298 289.963 C 92.702 289.653,91.688 288.904,91.044 288.297 C 90.401 287.690,89.588 287.240,89.237 287.297 C 88.887 287.354,88.628 287.220,88.662 287.000 C 88.696 286.780,88.471 286.368,88.162 286.084 C 87.837 285.786,87.600 285.744,87.600 285.984 C 87.600 286.624,86.915 286.477,86.647 285.779 C 86.511 285.423,86.578 285.263,86.805 285.403 C 87.022 285.537,87.200 285.521,87.200 285.368 C 87.200 284.901,85.845 284.026,85.100 284.013 C 84.715 284.006,84.400 283.806,84.400 283.569 C 84.400 282.845,81.185 280.000,80.367 280.000 C 79.751 280.000,79.307 279.158,79.682 278.700 C 79.843 278.504,77.556 276.400,77.182 276.400 C 76.972 276.400,76.800 276.220,76.800 276.000 C 76.800 275.780,76.461 275.600,76.047 275.600 C 75.614 275.600,75.198 275.237,75.071 274.748 C 74.922 274.179,74.641 273.976,74.224 274.135 C 73.833 274.285,73.600 274.155,73.600 273.787 C 73.600 273.464,73.735 273.186,73.900 273.169 C 74.065 273.153,74.516 273.078,74.902 273.005 C 75.288 272.931,75.525 272.998,75.428 273.154 C 75.332 273.310,75.418 273.700,75.620 274.019 C 75.935 274.517,75.989 274.518,75.994 274.027 C 75.997 273.712,76.634 274.162,77.408 275.027 C 78.499 276.246,78.894 276.476,79.164 276.047 C 79.438 275.613,79.571 275.678,79.783 276.347 C 79.932 276.816,80.232 277.200,80.451 277.200 C 80.669 277.200,80.717 277.411,80.558 277.668 C 80.364 277.981,80.485 278.053,80.924 277.885 C 81.312 277.736,81.720 277.886,81.925 278.252 C 82.116 278.593,82.391 278.856,82.536 278.836 C 83.341 278.727,83.620 278.844,83.400 279.200 C 83.264 279.420,83.523 279.600,83.976 279.600 C 84.429 279.600,84.800 279.780,84.800 280.000 C 84.800 280.220,85.238 280.400,85.773 280.400 C 86.395 280.400,86.838 280.689,87.000 281.200 C 87.140 281.640,87.602 282.000,88.027 282.000 C 88.452 282.000,88.800 282.180,88.800 282.400 C 88.800 282.620,89.160 282.800,89.600 282.800 C 90.040 282.800,90.400 282.974,90.400 283.187 C 90.400 283.401,90.668 283.472,90.997 283.346 C 91.337 283.215,91.699 283.392,91.839 283.758 C 91.975 284.111,92.516 284.400,93.043 284.400 C 93.655 284.400,94.000 284.631,94.000 285.043 C 94.000 285.459,94.218 285.602,94.621 285.447 C 94.962 285.316,95.143 285.368,95.023 285.563 C 94.742 286.017,95.938 286.485,96.498 286.139 C 96.739 285.991,96.807 286.065,96.656 286.309 C 96.334 286.830,97.642 287.312,98.492 286.986 C 98.825 286.858,99.377 287.034,99.720 287.377 C 100.063 287.720,100.536 288.000,100.771 288.000 C 101.007 288.000,101.200 288.180,101.200 288.400 C 101.200 288.620,101.335 288.779,101.500 288.753 C 102.404 288.610,103.215 288.852,103.000 289.200 C 102.864 289.420,103.033 289.600,103.376 289.600 C 103.719 289.600,104.000 289.780,104.000 290.000 C 104.000 290.220,104.360 290.400,104.800 290.400 C 105.240 290.400,105.600 290.570,105.600 290.777 C 105.600 290.984,105.960 291.085,106.400 291.000 C 106.901 290.903,107.200 291.061,107.200 291.423 C 107.200 291.740,107.481 292.000,107.824 292.000 C 108.167 292.000,108.355 291.850,108.241 291.667 C 108.128 291.483,108.289 291.333,108.600 291.333 C 108.911 291.333,109.102 291.438,109.024 291.567 C 108.811 291.922,109.702 292.583,110.600 292.737 C 111.040 292.812,111.460 293.037,111.533 293.237 C 111.607 293.436,112.171 293.600,112.788 293.600 C 113.996 293.600,116.132 294.535,115.764 294.903 C 115.515 295.152,116.921 295.679,117.459 295.538 C 117.646 295.489,118.654 295.862,119.699 296.368 C 120.743 296.873,121.875 297.180,122.214 297.050 C 122.565 296.915,122.928 297.068,123.058 297.407 C 123.185 297.738,123.786 298.000,124.419 298.000 C 125.043 298.000,125.664 298.180,125.800 298.400 C 125.936 298.620,126.476 298.800,127.000 298.800 C 127.524 298.800,128.064 298.980,128.200 299.200 C 128.336 299.420,128.977 299.600,129.624 299.600 C 130.271 299.600,130.800 299.802,130.800 300.049 C 130.800 300.355,130.996 300.336,131.414 299.989 C 131.865 299.614,132.262 299.590,132.914 299.899 C 134.766 300.777,136.443 301.300,137.404 301.300 C 137.952 301.300,138.400 301.457,138.400 301.650 C 138.400 301.843,138.850 302.000,139.400 302.000 C 139.950 302.000,140.403 302.225,140.406 302.500 C 140.410 302.833,140.542 302.800,140.800 302.400 C 141.088 301.955,141.189 301.937,141.194 302.330 C 141.198 302.658,141.619 302.833,142.300 302.788 C 144.489 302.643,145.064 302.767,144.400 303.238 C 143.951 303.557,144.230 303.615,145.508 303.469 C 146.731 303.329,147.395 303.453,147.845 303.902 C 148.379 304.436,148.525 304.445,148.824 303.965 C 149.111 303.503,149.323 303.492,149.982 303.900 C 150.426 304.175,150.984 304.400,151.223 304.400 C 151.462 304.400,151.935 304.678,152.275 305.018 C 152.692 305.434,153.520 305.607,154.821 305.547 C 155.881 305.499,156.986 305.657,157.276 305.897 C 157.590 306.158,159.142 306.293,161.102 306.230 C 163.609 306.150,164.400 306.251,164.400 306.649 C 164.400 307.045,165.185 307.152,167.609 307.087 C 170.193 307.017,170.689 307.094,170.158 307.481 C 169.629 307.867,170.287 307.957,173.494 307.937 C 175.706 307.924,177.859 308.110,178.318 308.356 C 179.512 308.995,182.937 308.950,182.547 308.300 C 182.314 307.912,182.376 307.904,182.825 308.267 C 183.602 308.896,219.858 308.987,221.489 308.365 C 222.100 308.131,224.310 307.928,226.400 307.914 C 228.490 307.899,230.309 307.719,230.442 307.514 C 230.575 307.309,231.700 307.117,232.942 307.088 C 234.496 307.052,235.200 306.874,235.200 306.518 C 235.200 306.233,235.554 306.000,235.987 306.000 C 236.523 306.000,236.701 306.192,236.545 306.600 C 236.418 306.930,236.499 307.200,236.724 307.200 C 236.949 307.200,237.202 306.995,237.285 306.745 C 237.377 306.468,238.407 306.296,239.918 306.306 C 241.293 306.314,242.299 306.160,242.176 305.961 C 241.939 305.578,242.823 305.477,245.344 305.595 C 246.357 305.643,246.798 305.520,246.624 305.238 C 246.460 304.974,246.597 304.901,246.979 305.047 C 247.321 305.178,247.600 305.086,247.600 304.843 C 247.600 304.574,248.449 304.400,249.767 304.400 C 250.967 304.400,251.998 304.207,252.078 303.967 C 252.157 303.728,253.071 303.533,254.108 303.533 C 255.145 303.533,256.096 303.368,256.221 303.167 C 256.345 302.965,257.157 302.800,258.024 302.800 C 258.891 302.800,259.600 302.620,259.600 302.400 C 259.600 302.180,260.320 302.000,261.200 302.000 C 262.080 302.000,262.800 301.820,262.800 301.600 C 262.800 301.380,263.239 301.200,263.776 301.200 C 264.313 301.200,264.864 301.020,265.000 300.800 C 265.136 300.580,266.122 300.400,267.190 300.400 C 268.259 300.400,269.197 300.209,269.275 299.976 C 269.352 299.743,269.997 299.535,270.707 299.515 C 271.610 299.489,271.886 299.344,271.626 299.031 C 271.360 298.711,271.701 298.627,272.827 298.734 C 273.799 298.827,274.400 298.715,274.400 298.442 C 274.400 298.199,274.655 298.000,274.967 298.000 C 275.278 298.000,275.624 297.775,275.735 297.500 C 275.896 297.100,275.943 297.100,275.968 297.500 C 275.986 297.775,276.315 297.997,276.700 297.994 C 277.298 297.989,277.313 297.931,276.800 297.600 C 276.159 297.186,276.198 297.174,278.500 297.071 C 278.995 297.049,279.850 296.618,280.399 296.113 C 280.949 295.607,281.453 295.360,281.521 295.563 C 281.690 296.071,283.845 295.412,284.652 294.605 C 285.010 294.247,285.550 294.049,285.852 294.164 C 286.153 294.280,286.400 294.237,286.400 294.068 C 286.400 293.703,288.770 292.800,289.728 292.800 C 290.098 292.800,290.400 292.620,290.400 292.400 C 290.400 292.180,290.900 292.000,291.512 292.000 C 292.160 292.000,292.861 291.670,293.194 291.209 C 293.613 290.627,293.846 290.548,294.076 290.909 C 294.321 291.294,294.389 291.292,294.394 290.900 C 294.397 290.625,294.850 290.400,295.400 290.400 C 295.950 290.400,296.400 290.220,296.400 290.000 C 296.400 289.780,296.659 289.600,296.976 289.600 C 297.293 289.600,297.681 289.392,297.838 289.138 C 298.027 288.833,297.946 288.786,297.600 289.000 C 297.275 289.201,297.174 289.166,297.332 288.910 C 297.473 288.683,297.951 288.402,298.394 288.286 C 298.838 288.170,299.100 288.238,298.977 288.437 C 298.854 288.637,298.943 288.800,299.176 288.800 C 299.409 288.800,299.600 288.561,299.600 288.268 C 299.600 287.974,300.002 287.751,300.500 287.768 C 301.063 287.788,301.356 287.595,301.284 287.251 C 301.209 286.900,301.391 286.788,301.788 286.940 C 302.516 287.219,304.465 286.428,304.181 285.969 C 304.074 285.797,304.198 285.525,304.455 285.366 C 304.748 285.185,304.816 285.250,304.638 285.538 C 304.283 286.112,304.617 286.126,305.637 285.580 C 306.069 285.349,306.317 284.989,306.188 284.780 C 306.058 284.571,306.233 284.400,306.576 284.400 C 306.919 284.400,307.203 284.175,307.206 283.900 C 307.210 283.567,307.342 283.600,307.600 284.000 C 307.858 284.400,307.990 284.433,307.994 284.100 C 307.997 283.825,308.360 283.600,308.800 283.600 C 309.240 283.600,309.600 283.420,309.600 283.200 C 309.600 282.980,309.920 282.800,310.312 282.800 C 310.703 282.800,311.283 282.440,311.600 282.000 C 311.917 281.560,312.416 281.200,312.707 281.200 C 312.999 281.200,313.702 280.705,314.269 280.100 C 314.836 279.495,315.075 279.315,314.801 279.700 C 314.187 280.561,314.337 280.570,315.943 279.769 C 316.639 279.421,317.107 278.973,316.983 278.773 C 316.860 278.573,317.038 278.516,317.379 278.647 C 317.721 278.778,318.000 278.686,318.000 278.443 C 318.000 278.199,318.236 278.000,318.525 278.000 C 318.813 278.000,319.436 277.640,319.908 277.200 C 320.380 276.760,321.089 276.397,321.483 276.394 C 322.092 276.389,322.110 276.330,321.600 276.000 C 321.112 275.685,321.164 275.611,321.876 275.606 C 322.888 275.599,323.445 274.965,322.702 274.666 C 322.426 274.554,322.695 274.449,323.300 274.432 C 323.905 274.414,324.400 274.220,324.400 274.000 C 324.400 273.780,324.715 273.606,325.100 273.613 C 325.691 273.625,325.655 273.748,324.869 274.402 C 324.331 274.851,324.062 275.377,324.231 275.651 C 324.392 275.911,324.359 276.022,324.157 275.897 C 323.590 275.547,322.635 276.454,321.885 278.056 C 321.510 278.858,320.888 279.623,320.502 279.757 C 319.914 279.962,319.926 279.904,320.576 279.401 C 321.336 278.813,321.334 278.800,320.476 278.800 C 319.949 278.800,319.600 279.049,319.600 279.424 C 319.600 279.767,319.420 279.936,319.200 279.800 C 318.833 279.573,318.622 280.120,318.763 280.930 C 318.794 281.111,318.635 281.145,318.410 281.006 C 318.184 280.867,318.000 280.973,318.000 281.243 C 318.000 281.513,317.889 281.622,317.752 281.486 C 317.383 281.117,316.309 282.330,316.595 282.792 C 316.738 283.023,316.579 283.090,316.221 282.953 C 315.879 282.822,315.600 282.869,315.600 283.057 C 315.598 283.885,313.555 285.774,313.229 285.247 C 312.992 284.864,312.756 285.051,312.367 285.931 C 312.072 286.597,311.687 287.054,311.512 286.946 C 311.337 286.838,311.081 287.046,310.942 287.408 C 310.739 287.935,310.621 287.960,310.350 287.534 C 310.097 287.134,310.011 287.126,310.006 287.500 C 310.003 287.775,309.773 288.000,309.495 288.000 C 309.217 288.000,308.664 288.434,308.266 288.964 C 307.868 289.494,307.098 290.039,306.555 290.176 C 306.012 290.312,305.653 290.562,305.757 290.731 C 305.862 290.900,305.782 291.300,305.580 291.619 C 305.261 292.122,305.210 292.120,305.194 291.600 C 305.180 291.131,305.085 291.155,304.763 291.708 C 304.536 292.098,304.207 292.328,304.032 292.220 C 303.634 291.974,301.571 294.238,301.896 294.563 C 302.027 294.693,301.640 294.800,301.038 294.800 C 300.106 294.800,298.394 295.878,298.700 296.271 C 298.755 296.342,298.797 296.535,298.794 296.700 C 298.791 296.865,298.637 296.762,298.452 296.470 C 298.179 296.041,297.998 296.059,297.487 296.570 C 297.140 296.917,296.574 297.200,296.229 297.200 C 295.853 297.200,295.587 297.562,295.568 298.100 C 295.551 298.595,295.447 298.777,295.336 298.504 C 295.102 297.923,294.000 298.823,294.000 299.595 C 294.000 299.844,293.817 299.934,293.593 299.796 C 293.370 299.658,293.299 299.364,293.435 299.143 C 293.572 298.922,293.317 298.970,292.868 299.251 C 292.419 299.531,292.143 299.909,292.256 300.090 C 292.368 300.271,292.311 300.394,292.130 300.363 C 291.102 300.184,290.470 300.521,289.996 301.500 C 289.569 302.383,289.432 302.462,289.303 301.901 C 289.155 301.262,289.087 301.256,288.506 301.837 C 287.969 302.374,287.957 302.526,288.431 302.819 C 288.806 303.051,288.596 303.123,287.796 303.036 C 286.193 302.863,285.600 303.134,285.600 304.043 C 285.600 304.459,285.409 304.800,285.176 304.800 C 284.943 304.800,284.864 304.620,285.000 304.400 C 285.136 304.180,285.010 304.000,284.720 304.000 C 284.430 304.000,283.968 304.360,283.693 304.800 C 283.410 305.252,282.760 305.600,282.197 305.600 C 281.648 305.600,281.200 305.736,281.200 305.902 C 281.200 306.240,278.867 307.363,278.119 307.386 C 277.854 307.394,277.404 307.707,277.119 308.082 C 276.833 308.457,276.150 308.834,275.600 308.920 C 274.474 309.097,273.333 309.481,272.305 310.029 C 271.923 310.233,271.343 310.400,271.015 310.400 C 270.687 310.400,269.830 310.759,269.110 311.199 C 268.389 311.638,267.491 311.998,267.113 311.999 C 266.664 311.999,266.506 312.210,266.657 312.605 C 266.848 313.103,266.621 313.167,265.365 312.968 C 264.002 312.751,263.896 312.793,264.369 313.363 C 264.839 313.929,264.710 314.000,263.220 314.000 C 260.368 314.000,259.493 316.604,262.070 317.422 C 262.478 317.552,262.704 317.833,262.571 318.046 C 262.265 318.542,263.174 319.663,263.645 319.372 C 263.840 319.251,264.000 319.414,264.000 319.734 C 264.000 320.053,264.289 320.425,264.642 320.561 C 265.019 320.706,265.186 321.060,265.046 321.424 C 264.911 321.777,264.978 321.937,265.205 321.797 C 265.422 321.663,265.600 321.833,265.600 322.176 C 265.600 322.519,265.825 322.755,266.100 322.700 C 266.375 322.645,266.555 322.825,266.500 323.100 C 266.445 323.375,266.580 323.600,266.800 323.600 C 267.020 323.600,267.200 323.883,267.200 324.229 C 267.200 325.025,268.203 326.053,268.617 325.681 C 268.788 325.526,268.802 325.620,268.647 325.889 C 268.489 326.164,268.724 326.685,269.183 327.078 C 269.632 327.463,270.000 328.010,270.000 328.293 C 270.000 328.576,270.370 329.121,270.823 329.504 C 271.276 329.887,271.927 330.785,272.269 331.500 C 272.611 332.215,273.141 332.800,273.446 332.800 C 273.751 332.800,274.000 332.980,274.000 333.200 C 274.000 333.451,276.247 333.592,280.000 333.576 C 283.460 333.562,286.000 333.393,286.000 333.176 C 286.000 332.969,287.001 332.800,288.224 332.800 C 289.604 332.800,290.353 332.648,290.200 332.400 C 290.064 332.180,290.334 332.000,290.800 332.000 C 291.266 332.000,291.536 332.180,291.400 332.400 C 291.264 332.620,291.343 332.800,291.576 332.800 C 291.809 332.800,292.000 332.620,292.000 332.400 C 292.000 332.180,292.594 332.000,293.320 332.000 C 294.046 332.000,294.882 331.775,295.179 331.500 C 295.617 331.093,295.655 331.112,295.382 331.600 C 295.115 332.078,295.164 332.109,295.623 331.755 C 295.940 331.510,296.470 331.300,296.800 331.288 C 299.767 331.186,301.037 331.018,301.247 330.699 C 301.383 330.493,302.148 330.305,302.947 330.283 C 303.746 330.260,304.400 330.097,304.400 329.921 C 304.400 329.744,304.535 329.621,304.700 329.647 C 305.535 329.779,308.131 329.509,307.700 329.335 C 306.762 328.957,307.197 328.538,308.353 328.708 C 308.987 328.801,309.627 328.680,309.776 328.438 C 309.925 328.197,310.262 328.003,310.524 328.006 C 310.810 328.010,310.761 328.167,310.400 328.400 C 309.887 328.731,309.902 328.789,310.500 328.794 C 310.885 328.797,311.200 328.620,311.200 328.400 C 311.200 328.180,311.819 328.000,312.576 328.000 C 313.333 328.000,314.064 327.820,314.200 327.600 C 314.336 327.380,314.982 327.200,315.636 327.200 C 316.301 327.200,316.922 326.947,317.046 326.625 C 317.167 326.309,317.507 326.143,317.802 326.256 C 318.441 326.501,320.014 325.722,320.667 324.835 C 320.924 324.487,321.279 324.346,321.456 324.522 C 321.632 324.699,321.512 325.011,321.188 325.216 C 320.695 325.528,320.713 325.589,321.300 325.594 C 321.685 325.597,322.000 325.330,322.000 325.000 C 322.000 324.600,322.400 324.400,323.200 324.400 C 323.860 324.400,324.400 324.220,324.400 324.000 C 324.400 323.780,324.929 323.600,325.576 323.600 C 326.223 323.600,326.864 323.420,327.000 323.200 C 327.136 322.980,327.514 322.800,327.840 322.800 C 328.167 322.800,328.820 322.440,329.292 322.000 C 330.082 321.264,331.024 321.004,332.300 321.170 C 332.575 321.206,332.800 321.047,332.800 320.818 C 332.800 320.588,333.179 320.400,333.643 320.400 C 334.214 320.400,334.414 320.214,334.263 319.820 C 334.115 319.433,334.233 319.315,334.620 319.463 C 334.950 319.590,335.203 319.451,335.206 319.143 C 335.211 318.696,335.272 318.694,335.548 319.129 C 335.817 319.553,336.155 319.494,337.242 318.831 C 337.989 318.376,339.050 317.981,339.600 317.955 C 340.288 317.922,340.380 317.850,339.895 317.723 C 339.507 317.622,339.288 317.381,339.408 317.187 C 339.528 316.993,339.890 316.936,340.213 317.060 C 340.536 317.184,340.800 317.086,340.800 316.843 C 340.800 316.599,340.993 316.400,341.229 316.400 C 341.464 316.400,341.911 316.146,342.222 315.836 C 342.532 315.525,343.149 315.366,343.593 315.482 C 344.111 315.618,344.401 315.497,344.403 315.147 C 344.406 314.583,346.131 313.600,347.116 313.600 C 347.422 313.600,348.010 313.195,348.423 312.700 C 348.848 312.190,349.179 312.024,349.187 312.316 C 349.198 312.737,349.303 312.737,349.758 312.316 C 350.065 312.032,350.215 311.634,350.092 311.432 C 349.969 311.230,350.154 311.173,350.502 311.307 C 350.854 311.442,351.528 311.210,352.019 310.783 C 352.505 310.362,353.060 310.113,353.252 310.232 C 353.443 310.350,353.600 310.257,353.600 310.024 C 353.600 309.791,353.900 309.600,354.267 309.600 C 354.633 309.600,354.816 309.483,354.673 309.340 C 354.315 308.982,355.638 308.028,356.513 308.013 C 356.904 308.006,357.324 307.741,357.446 307.425 C 357.567 307.109,357.888 306.935,358.158 307.039 C 358.429 307.143,358.886 306.786,359.175 306.246 C 359.464 305.706,359.930 305.352,360.210 305.459 C 360.490 305.567,360.855 305.434,361.021 305.165 C 361.208 304.864,361.157 304.779,360.889 304.945 C 360.651 305.092,360.342 305.030,360.204 304.807 C 360.057 304.568,360.418 304.397,361.076 304.394 C 361.949 304.389,362.066 304.301,361.600 304.000 C 361.097 303.675,361.093 303.611,361.574 303.606 C 361.890 303.603,362.594 303.195,363.139 302.700 C 363.683 302.205,363.999 302.025,363.841 302.300 C 363.369 303.119,364.175 302.867,364.800 302.000 C 365.117 301.560,365.652 301.197,365.988 301.194 C 366.529 301.188,366.531 301.143,366.000 300.800 C 365.525 300.493,365.611 300.411,366.411 300.406 C 366.967 300.403,367.717 300.085,368.077 299.700 C 368.438 299.315,369.266 298.554,369.918 298.008 C 370.614 297.426,371.013 296.777,370.883 296.438 C 370.725 296.028,370.854 295.935,371.331 296.118 C 371.699 296.259,372.000 296.208,372.000 296.004 C 372.000 295.325,375.144 292.318,375.575 292.585 C 375.809 292.729,376.000 292.657,376.000 292.424 C 376.000 292.191,376.268 292.000,376.595 292.000 C 376.967 292.000,377.155 291.678,377.095 291.144 C 377.043 290.673,377.250 290.200,377.556 290.092 C 377.939 289.957,378.011 290.068,377.787 290.448 C 377.608 290.752,377.849 290.661,378.322 290.247 C 378.794 289.832,379.068 289.309,378.929 289.085 C 378.784 288.851,378.874 288.798,379.138 288.962 C 379.392 289.119,379.600 289.084,379.600 288.885 C 379.600 288.685,380.005 288.314,380.500 288.059 C 381.384 287.604,381.382 287.600,380.403 287.856 C 379.516 288.087,379.466 288.044,379.948 287.462 C 380.247 287.103,380.664 286.916,380.876 287.047 C 381.305 287.312,382.527 286.089,382.732 285.188 C 382.805 284.869,383.006 284.516,383.179 284.404 C 383.643 284.104,383.649 273.600,383.185 273.600 C 382.973 273.600,382.803 273.105,382.806 272.500 C 382.811 271.643,382.898 271.532,383.200 272.000 C 383.413 272.330,383.591 272.411,383.594 272.180 C 383.597 271.949,383.424 271.584,383.209 271.369 C 382.994 271.154,382.791 269.678,382.758 268.089 C 382.725 266.500,382.571 265.200,382.414 265.200 C 382.258 265.200,382.106 264.563,382.076 263.784 C 382.038 262.765,382.160 262.450,382.512 262.660 C 382.828 262.850,382.809 262.718,382.457 262.284 C 382.119 261.867,381.926 260.668,381.946 259.107 C 381.969 257.386,381.860 256.788,381.600 257.200 C 381.326 257.635,381.237 257.391,381.275 256.316 C 381.304 255.500,381.480 254.926,381.664 255.040 C 382.123 255.323,382.090 254.651,381.622 254.180 C 381.415 253.971,381.210 252.360,381.166 250.600 C 381.123 248.840,380.947 247.308,380.775 247.195 C 380.603 247.083,380.394 245.694,380.311 244.109 C 380.228 242.524,380.034 241.101,379.880 240.947 C 379.726 240.793,379.600 240.247,379.600 239.733 C 379.600 239.220,379.420 238.800,379.200 238.800 C 378.980 238.800,378.800 238.609,378.800 238.376 C 378.800 238.143,378.980 238.064,379.200 238.200 C 379.426 238.339,379.600 238.015,379.600 237.457 C 379.600 236.912,379.430 236.407,379.222 236.333 C 379.015 236.260,378.804 235.173,378.755 233.918 C 378.705 232.663,378.528 231.721,378.361 231.824 C 378.194 231.927,377.931 231.612,377.776 231.124 C 377.621 230.635,377.653 230.183,377.847 230.118 C 378.041 230.054,378.138 229.011,378.063 227.800 C 377.988 226.589,377.763 225.700,377.563 225.823 C 377.363 225.946,377.200 225.857,377.200 225.624 C 377.200 225.391,377.425 225.197,377.700 225.194 C 378.052 225.190,378.033 225.082,377.634 224.829 C 377.297 224.616,377.090 223.889,377.122 223.036 C 377.160 222.015,377.006 221.600,376.588 221.600 C 376.265 221.600,376.000 221.401,376.000 221.157 C 376.000 220.914,376.285 220.824,376.633 220.957 C 377.039 221.113,377.201 221.021,377.083 220.700 C 376.983 220.425,376.739 220.231,376.542 220.269 C 376.346 220.307,376.254 219.617,376.338 218.735 C 376.429 217.773,376.289 216.944,375.986 216.665 C 375.592 216.301,375.536 216.352,375.729 216.900 C 375.864 217.285,375.801 217.600,375.587 217.600 C 375.374 217.600,375.200 217.139,375.200 216.576 C 375.200 216.013,375.342 215.641,375.516 215.748 C 375.800 215.923,375.731 213.612,375.424 212.600 C 375.357 212.380,375.294 212.040,375.285 211.845 C 375.276 211.649,375.050 211.355,374.784 211.190 C 374.518 211.026,374.300 210.424,374.300 209.853 C 374.300 209.282,374.142 208.912,373.950 209.031 C 373.757 209.150,373.600 208.146,373.600 206.800 C 373.600 205.270,373.450 204.445,373.200 204.600 C 372.980 204.736,372.800 204.657,372.800 204.424 C 372.800 204.191,372.980 204.000,373.200 204.000 C 373.420 204.000,373.600 203.809,373.600 203.576 C 373.600 203.343,373.420 203.264,373.200 203.400 C 372.953 203.552,372.800 202.871,372.800 201.624 C 372.800 200.511,372.620 199.600,372.400 199.600 C 372.180 199.600,372.000 199.049,372.000 198.376 C 372.000 197.663,371.833 197.256,371.600 197.400 C 371.380 197.536,371.200 197.472,371.200 197.257 C 371.200 197.042,371.425 196.776,371.700 196.665 C 372.100 196.504,372.100 196.457,371.700 196.432 C 371.403 196.413,371.200 195.841,371.200 195.024 C 371.200 194.267,371.058 193.559,370.884 193.452 C 370.710 193.344,370.522 192.577,370.466 191.747 C 370.410 190.918,370.198 190.038,369.995 189.793 C 369.791 189.549,369.561 188.730,369.483 187.974 C 369.404 187.218,369.110 186.060,368.828 185.400 C 368.546 184.740,368.229 183.300,368.123 182.200 C 368.017 181.100,367.755 180.020,367.541 179.800 C 367.288 179.539,367.244 179.678,367.414 180.200 C 367.611 180.804,367.577 180.862,367.275 180.436 C 367.054 180.126,366.969 179.625,367.086 179.321 C 367.202 179.018,366.988 178.429,366.611 178.012 C 366.123 177.473,366.000 176.909,366.187 176.060 C 366.331 175.404,366.284 174.537,366.083 174.134 C 365.882 173.730,365.378 172.680,364.963 171.800 C 364.547 170.920,364.082 170.106,363.928 169.991 C 363.774 169.876,363.605 168.850,363.553 167.711 C 363.501 166.572,363.311 165.732,363.129 165.844 C 362.948 165.956,362.800 165.587,362.800 165.024 C 362.800 164.461,362.620 164.000,362.400 164.000 C 362.180 164.000,362.000 163.809,362.000 163.576 C 362.000 163.343,362.215 163.286,362.479 163.449 C 362.742 163.611,362.595 163.217,362.152 162.572 C 361.709 161.928,361.322 160.966,361.293 160.436 C 361.264 159.906,361.012 159.331,360.733 159.159 C 360.424 158.967,360.272 158.215,360.344 157.223 C 360.414 156.258,360.287 155.600,360.031 155.600 C 359.794 155.600,359.586 155.015,359.568 154.300 C 359.551 153.585,359.446 153.225,359.335 153.500 C 358.948 154.458,358.459 153.991,358.609 152.807 C 358.692 152.151,358.508 151.129,358.201 150.536 C 357.893 149.943,357.732 149.309,357.844 149.129 C 357.956 148.948,357.857 148.800,357.624 148.800 C 357.391 148.800,357.200 148.260,357.200 147.600 C 357.200 146.940,357.059 146.400,356.887 146.400 C 356.715 146.400,356.333 145.580,356.037 144.578 C 355.741 143.576,355.250 142.508,354.947 142.204 C 354.644 141.901,354.357 141.191,354.310 140.626 C 354.264 140.062,354.118 139.600,353.987 139.600 C 353.856 139.600,353.502 138.970,353.200 138.200 C 352.898 137.430,352.504 136.800,352.325 136.800 C 352.146 136.800,352.000 136.170,352.000 135.400 C 352.000 134.630,351.820 134.000,351.600 134.000 C 351.380 134.000,351.200 133.640,351.200 133.200 C 351.200 132.740,350.933 132.400,350.573 132.400 C 350.116 132.400,350.019 132.170,350.215 131.552 C 350.534 130.547,349.669 128.721,349.040 129.072 C 348.780 129.217,348.795 129.107,349.076 128.803 C 349.448 128.400,349.372 128.144,348.726 127.620 C 348.262 127.245,347.900 126.480,347.900 125.876 C 347.900 125.284,347.743 124.800,347.550 124.800 C 347.358 124.800,347.200 124.461,347.200 124.046 C 347.200 122.912,346.254 121.315,345.693 121.502 C 345.422 121.593,345.200 121.472,345.200 121.233 C 345.200 120.995,345.374 120.800,345.587 120.800 C 345.801 120.800,345.868 120.522,345.738 120.183 C 345.608 119.843,345.405 119.662,345.287 119.779 C 344.842 120.224,344.092 119.135,344.299 118.344 C 344.417 117.890,344.354 117.402,344.157 117.259 C 343.608 116.861,342.800 115.282,342.800 114.605 C 342.800 114.272,342.620 114.000,342.400 114.000 C 342.180 114.000,342.000 113.662,342.000 113.249 C 342.000 112.836,341.730 112.274,341.400 112.000 C 341.070 111.726,340.800 111.306,340.800 111.066 C 340.800 110.826,340.305 110.205,339.700 109.686 C 339.095 109.167,338.825 108.856,339.100 108.995 C 339.386 109.139,339.600 108.999,339.600 108.666 C 339.600 108.347,339.333 107.983,339.007 107.858 C 338.669 107.728,338.515 107.365,338.650 107.015 C 338.779 106.677,338.686 106.400,338.443 106.400 C 338.199 106.400,338.000 106.145,338.000 105.833 C 338.000 105.522,337.505 104.897,336.900 104.446 C 336.295 103.995,336.040 103.620,336.333 103.613 C 337.305 103.590,334.836 99.996,333.500 99.490 C 333.115 99.344,332.800 98.993,332.800 98.709 C 332.800 98.425,332.421 97.956,331.958 97.667 C 331.495 97.378,331.236 97.334,331.382 97.570 C 331.528 97.807,331.367 98.000,331.024 98.000 C 330.681 98.000,330.421 97.865,330.447 97.700 C 330.594 96.772,330.291 96.400,329.387 96.400 C 328.791 96.400,328.266 96.113,328.110 95.700 C 327.763 94.785,326.800 93.808,326.800 94.371 C 326.800 95.152,326.136 94.816,325.673 93.800 C 325.216 92.798,324.400 92.428,324.400 93.224 C 324.400 93.457,324.608 93.519,324.862 93.362 C 325.157 93.180,325.215 93.253,325.022 93.564 C 324.795 93.931,324.535 93.884,323.970 93.373 C 323.557 92.999,323.334 92.507,323.475 92.279 C 323.627 92.033,323.486 91.958,323.129 92.095 C 322.798 92.222,322.274 92.146,321.964 91.925 C 321.517 91.608,321.546 91.571,322.100 91.750 C 322.485 91.874,322.800 91.801,322.800 91.587 C 322.800 91.374,322.468 91.200,322.062 91.200 C 321.656 91.200,320.998 90.840,320.600 90.400 C 320.202 89.960,319.634 89.600,319.338 89.600 C 319.042 89.600,318.800 89.420,318.800 89.200 C 318.800 88.980,318.440 88.800,318.000 88.800 C 317.560 88.800,317.200 88.620,317.200 88.400 C 317.200 88.180,316.772 88.000,316.249 88.000 C 315.726 88.000,315.076 87.732,314.804 87.404 C 314.532 87.077,314.183 86.887,314.028 86.983 C 313.873 87.079,313.493 86.807,313.185 86.379 C 312.876 85.950,312.303 85.600,311.912 85.600 C 311.520 85.600,311.200 85.420,311.200 85.200 C 311.200 84.980,310.754 84.800,310.209 84.800 C 309.591 84.800,308.969 84.420,308.555 83.788 C 308.190 83.231,307.798 82.869,307.683 82.984 C 307.568 83.099,307.214 82.978,306.898 82.715 C 306.581 82.452,305.942 82.179,305.478 82.109 C 305.014 82.038,304.512 81.781,304.362 81.539 C 304.212 81.296,303.862 81.238,303.583 81.411 C 303.271 81.603,303.176 81.562,303.336 81.304 C 303.624 80.837,302.757 80.400,301.544 80.400 C 301.109 80.400,300.864 80.220,301.000 80.000 C 301.136 79.780,300.877 79.600,300.424 79.600 C 299.971 79.600,299.600 79.420,299.600 79.200 C 299.600 78.980,299.240 78.800,298.800 78.800 C 298.360 78.800,298.000 78.620,298.000 78.400 C 298.000 78.180,297.550 78.000,297.000 78.000 C 296.450 78.000,296.000 77.859,296.000 77.687 C 296.000 77.515,295.505 77.334,294.900 77.284 C 294.295 77.234,293.740 77.015,293.667 76.797 C 293.593 76.578,293.358 76.400,293.143 76.400 C 292.928 76.400,292.867 76.625,293.007 76.900 C 293.147 77.175,292.888 76.976,292.431 76.457 C 291.975 75.938,291.349 75.611,291.040 75.729 C 290.731 75.848,290.153 75.707,289.756 75.417 C 289.358 75.127,288.824 74.969,288.568 75.068 C 288.312 75.166,287.811 74.954,287.455 74.598 C 287.098 74.241,286.648 74.047,286.455 74.166 C 286.261 74.286,285.692 74.027,285.190 73.592 C 284.243 72.770,282.964 72.494,283.404 73.207 C 283.542 73.430,283.810 73.517,284.000 73.400 C 284.190 73.283,284.458 73.370,284.596 73.593 C 284.734 73.817,284.692 74.000,284.503 74.000 C 283.882 74.000,282.006 73.007,282.003 72.676 C 282.001 72.498,282.208 72.481,282.462 72.638 C 282.763 72.824,282.814 72.747,282.610 72.416 C 282.403 72.081,281.761 71.980,280.718 72.120 C 279.434 72.292,279.183 72.221,279.369 71.738 C 279.535 71.305,279.352 71.173,278.698 71.251 C 278.204 71.311,277.407 71.144,276.926 70.880 C 276.446 70.616,275.681 70.400,275.226 70.400 C 274.772 70.400,274.400 70.203,274.400 69.961 C 274.400 69.684,273.679 69.574,272.438 69.661 C 271.358 69.738,270.547 69.684,270.635 69.542 C 270.878 69.151,269.700 68.800,268.144 68.800 C 267.318 68.800,266.853 68.637,267.000 68.400 C 267.156 68.148,266.204 68.000,264.424 68.000 C 262.808 68.000,261.600 67.829,261.600 67.600 C 261.600 67.380,260.790 67.200,259.800 67.200 C 258.810 67.200,258.000 67.020,258.000 66.800 C 258.000 66.221,256.504 66.307,256.265 66.900 C 256.104 67.300,256.057 67.300,256.032 66.900 C 255.970 65.928,248.800 66.225,248.800 67.200 C 248.800 67.640,248.599 68.000,248.353 68.000 C 248.104 68.000,247.999 68.353,248.116 68.800 C 248.252 69.320,248.128 69.600,247.763 69.600 C 247.426 69.600,247.200 70.011,247.200 70.624 C 247.200 71.204,247.027 71.540,246.800 71.400 C 246.566 71.255,246.400 71.670,246.400 72.400 C 246.400 73.130,246.234 73.545,246.000 73.400 C 245.769 73.257,245.600 73.640,245.600 74.309 C 245.600 75.660,246.797 76.461,248.500 76.248 C 249.198 76.160,249.600 76.297,249.600 76.621 C 249.600 76.946,250.145 77.130,251.100 77.125 C 253.958 77.111,254.266 77.170,253.600 77.600 C 253.141 77.897,253.290 77.989,254.233 77.994 C 254.912 77.997,255.591 78.125,255.744 78.277 C 255.896 78.429,256.407 78.613,256.879 78.685 C 257.351 78.757,257.975 79.013,258.265 79.254 C 258.555 79.495,259.327 79.613,259.981 79.517 C 260.732 79.407,261.244 79.538,261.372 79.872 C 261.484 80.162,262.112 80.400,262.769 80.400 C 263.995 80.400,266.014 81.125,266.439 81.717 C 266.571 81.900,267.291 82.066,268.039 82.086 C 268.788 82.106,269.670 82.426,270.000 82.798 C 270.330 83.170,271.022 83.441,271.537 83.401 C 272.053 83.361,272.570 83.577,272.686 83.881 C 272.803 84.185,273.191 84.405,273.549 84.371 C 275.248 84.207,275.970 84.414,275.745 85.000 C 275.585 85.416,275.772 85.600,276.357 85.600 C 276.821 85.600,277.200 85.780,277.200 86.000 C 277.200 86.220,277.650 86.400,278.200 86.400 C 278.750 86.400,279.200 86.580,279.200 86.800 C 279.200 87.020,279.465 87.200,279.788 87.200 C 280.111 87.200,281.008 87.555,281.782 87.990 C 282.555 88.424,283.451 88.678,283.774 88.555 C 284.097 88.431,284.860 88.794,285.476 89.365 C 286.090 89.934,286.959 90.400,287.408 90.400 C 287.856 90.400,288.483 90.760,288.800 91.200 C 289.117 91.640,289.592 92.000,289.855 92.000 C 290.118 92.000,290.393 92.178,290.467 92.397 C 290.540 92.615,291.140 92.836,291.800 92.889 C 292.531 92.948,293.513 93.496,294.313 94.293 C 295.669 95.642,296.262 95.974,295.759 95.100 C 295.488 94.630,296.045 95.063,298.375 97.133 C 298.912 97.610,299.746 98.000,300.229 98.000 C 300.770 98.000,301.187 98.307,301.316 98.800 C 301.441 99.279,301.862 99.600,302.363 99.600 C 302.823 99.600,303.200 99.780,303.200 100.000 C 303.200 100.220,303.335 100.379,303.500 100.353 C 304.297 100.227,304.822 100.440,304.600 100.800 C 304.460 101.027,304.796 101.200,305.376 101.200 C 305.939 101.200,306.379 101.335,306.353 101.500 C 306.227 102.297,306.440 102.822,306.800 102.600 C 307.020 102.464,307.200 102.633,307.200 102.976 C 307.200 103.385,307.567 103.600,308.267 103.600 C 308.853 103.600,309.227 103.707,309.096 103.837 C 308.639 104.294,310.917 106.417,311.624 106.192 C 312.116 106.036,312.381 106.269,312.570 107.024 C 312.746 107.725,313.027 107.999,313.417 107.849 C 313.738 107.726,314.000 107.766,314.000 107.937 C 314.000 108.517,315.645 110.019,316.024 109.785 C 316.231 109.657,316.400 109.754,316.400 110.000 C 316.400 110.246,316.597 110.325,316.838 110.176 C 317.113 110.007,317.216 110.185,317.115 110.653 C 317.024 111.068,316.697 111.331,316.376 111.243 C 316.059 111.157,315.480 111.102,315.088 111.119 C 314.697 111.137,314.159 110.803,313.892 110.376 C 313.626 109.949,313.091 109.600,312.704 109.600 C 312.317 109.600,312.000 109.420,312.000 109.200 C 312.000 108.980,311.685 108.799,311.300 108.799 C 310.915 108.798,310.011 108.438,309.290 107.999 C 308.570 107.559,307.535 107.200,306.990 107.200 C 306.446 107.200,306.000 107.063,306.000 106.896 C 306.000 106.729,305.621 106.356,305.158 106.067 C 304.695 105.778,304.434 105.732,304.579 105.966 C 304.739 106.226,304.600 106.298,304.221 106.153 C 303.879 106.022,303.600 105.664,303.600 105.357 C 303.600 105.051,303.240 104.800,302.800 104.800 C 302.360 104.800,302.000 104.620,302.000 104.400 C 302.000 104.180,301.865 104.021,301.700 104.047 C 300.406 104.252,299.139 103.936,299.324 103.455 C 299.467 103.080,299.199 102.906,298.466 102.898 C 296.279 102.874,296.134 102.831,296.800 102.400 C 297.313 102.069,297.298 102.011,296.700 102.006 C 296.315 102.003,296.000 101.820,296.000 101.600 C 296.000 101.380,295.460 101.200,294.800 101.200 C 294.140 101.200,293.600 101.020,293.600 100.800 C 293.600 100.580,293.240 100.400,292.800 100.400 C 292.360 100.400,292.000 100.209,292.000 99.976 C 292.000 99.743,291.825 99.661,291.611 99.793 C 291.398 99.925,290.777 99.741,290.232 99.384 C 289.688 99.028,289.143 98.750,289.021 98.768 C 288.105 98.901,287.595 98.732,287.819 98.369 C 287.997 98.082,287.658 98.006,286.801 98.141 C 285.195 98.394,284.075 98.052,284.866 97.550 C 285.252 97.306,285.156 97.211,284.524 97.206 C 284.042 97.203,283.536 97.020,283.400 96.800 C 283.264 96.580,282.613 96.400,281.953 96.400 C 281.255 96.400,280.856 96.233,281.000 96.000 C 281.147 95.762,280.679 95.600,279.847 95.600 C 279.077 95.600,278.328 95.408,278.183 95.173 C 278.038 94.938,277.672 94.840,277.371 94.956 C 277.070 95.071,276.561 94.904,276.240 94.583 C 275.919 94.262,275.014 94.000,274.229 94.000 C 273.443 94.000,272.800 93.809,272.800 93.576 C 272.800 93.343,273.008 93.281,273.262 93.438 C 273.562 93.624,273.614 93.547,273.411 93.218 C 273.211 92.894,272.615 92.790,271.756 92.930 C 270.976 93.056,270.300 92.962,270.142 92.706 C 269.964 92.418,270.108 92.356,270.555 92.527 C 270.963 92.684,271.142 92.630,270.997 92.395 C 270.863 92.178,270.123 92.000,269.353 92.000 C 268.583 92.000,268.056 91.833,268.182 91.629 C 268.314 91.416,267.633 91.302,266.587 91.361 C 264.785 91.462,263.922 91.090,264.898 90.632 C 265.174 90.503,264.901 90.463,264.290 90.545 C 263.680 90.626,263.089 90.545,262.978 90.364 C 262.866 90.183,262.481 90.148,262.122 90.285 C 261.715 90.442,261.568 90.375,261.732 90.110 C 262.009 89.662,259.971 89.234,256.900 89.095 C 255.767 89.044,255.200 88.836,255.200 88.472 C 255.200 88.060,254.660 87.960,252.999 88.063 C 251.432 88.161,250.799 88.056,250.799 87.700 C 250.800 87.395,250.254 87.200,249.400 87.200 C 248.630 87.200,248.000 87.020,248.000 86.800 C 248.000 86.575,246.875 86.400,245.424 86.400 C 244.007 86.400,242.751 86.244,242.633 86.053 C 242.515 85.862,241.390 85.682,240.133 85.653 C 238.876 85.624,237.724 85.401,237.574 85.157 C 237.374 84.834,237.226 84.834,237.026 85.158 C 236.852 85.440,236.505 85.473,236.076 85.248 C 235.704 85.053,234.502 84.878,233.404 84.860 C 232.307 84.841,231.347 84.640,231.271 84.413 C 231.094 83.883,230.000 83.872,230.000 84.400 C 230.000 84.620,229.685 84.797,229.300 84.794 C 228.698 84.789,228.684 84.730,229.200 84.377 C 229.667 84.056,229.535 83.979,228.600 84.025 C 225.273 84.191,221.574 83.966,221.793 83.612 C 222.232 82.902,220.324 82.833,202.600 82.917 C 188.769 82.982,185.021 83.107,185.100 83.500 C 185.155 83.775,185.001 84.000,184.757 84.000 C 184.514 84.000,184.418 83.730,184.545 83.400 C 184.850 82.605,184.450 82.642,183.438 83.500 C 182.705 84.123,182.672 84.125,183.139 83.521 C 183.620 82.898,183.460 82.842,181.228 82.853 C 179.576 82.861,178.879 83.005,179.062 83.300 C 179.234 83.578,179.090 83.644,178.666 83.481 C 178.300 83.340,178.000 83.399,178.000 83.613 C 178.000 83.840,176.101 84.000,173.400 84.000 C 170.600 84.000,168.800 84.157,168.800 84.400 C 168.800 84.620,167.915 84.800,166.833 84.800 C 165.651 84.800,164.774 84.999,164.633 85.300 C 164.447 85.700,164.353 85.700,164.167 85.300 C 164.038 85.025,163.758 84.800,163.543 84.800 C 163.328 84.800,163.288 85.025,163.453 85.300 C 163.657 85.640,163.537 85.624,163.077 85.251 C 162.636 84.893,162.400 84.858,162.400 85.151 C 162.400 85.437,161.456 85.600,159.800 85.600 C 158.333 85.600,157.200 85.774,157.200 86.000 C 157.200 86.222,156.133 86.400,154.800 86.400 C 153.467 86.400,152.400 86.578,152.400 86.800 C 152.400 87.020,151.800 87.200,151.067 87.200 C 150.333 87.200,149.610 87.324,149.459 87.475 C 149.167 87.766,148.381 87.889,145.808 88.043 C 144.932 88.095,144.438 88.213,144.710 88.303 C 145.800 88.667,144.728 89.051,142.922 88.945 C 141.782 88.878,141.222 88.967,141.542 89.164 C 141.880 89.373,141.396 89.511,140.241 89.534 C 139.230 89.554,138.051 89.759,137.622 89.988 C 137.193 90.218,136.403 90.442,135.866 90.486 C 135.329 90.531,134.967 90.770,135.062 91.017 C 135.178 91.318,134.638 91.430,133.427 91.356 C 132.433 91.295,131.514 91.415,131.386 91.623 C 131.258 91.830,130.623 92.000,129.976 92.000 C 129.329 92.000,128.800 92.180,128.800 92.400 C 128.800 92.620,128.215 92.814,127.500 92.832 C 126.785 92.849,126.425 92.954,126.700 93.065 C 127.646 93.446,127.197 93.837,125.700 93.936 C 124.875 93.990,124.140 94.207,124.067 94.418 C 123.993 94.628,123.498 94.800,122.967 94.800 C 122.435 94.800,122.000 94.980,122.000 95.200 C 122.000 95.420,121.325 95.603,120.500 95.606 C 119.384 95.611,119.154 95.712,119.600 96.000 C 120.266 96.430,119.639 96.553,117.500 96.412 C 116.895 96.372,116.400 96.533,116.400 96.770 C 116.400 97.006,115.815 97.203,115.100 97.206 C 114.114 97.211,113.945 97.306,114.400 97.600 C 114.857 97.895,114.695 97.989,113.724 97.994 C 113.022 97.997,112.336 98.180,112.200 98.400 C 112.064 98.620,111.535 98.800,111.025 98.800 C 110.515 98.800,109.867 99.078,109.585 99.418 C 109.303 99.758,108.811 99.936,108.491 99.814 C 108.089 99.659,107.985 99.783,108.151 100.216 C 108.283 100.560,108.226 100.739,108.024 100.615 C 107.822 100.490,106.832 100.608,105.825 100.878 C 104.049 101.353,104.021 101.385,104.896 101.909 L 105.800 102.450 104.900 102.263 C 104.379 102.154,103.997 102.270,103.994 102.537 C 103.990 102.843,103.888 102.860,103.694 102.587 C 103.354 102.108,102.601 102.066,102.167 102.500 C 102.002 102.665,101.492 102.803,101.033 102.806 C 100.424 102.811,100.344 102.903,100.734 103.150 C 101.341 103.536,100.238 104.199,99.260 104.036 C 98.911 103.978,98.832 104.133,99.037 104.473 C 99.282 104.882,99.201 104.877,98.677 104.451 C 98.009 103.909,97.776 104.182,97.953 105.300 C 98.003 105.619,97.174 105.735,95.700 105.616 C 95.205 105.576,94.800 105.736,94.800 105.971 C 94.800 106.207,94.350 106.400,93.800 106.400 C 93.250 106.400,92.800 106.580,92.800 106.800 C 92.800 107.020,92.429 107.200,91.976 107.200 C 91.523 107.200,91.264 107.380,91.400 107.600 C 91.615 107.948,90.804 108.190,89.900 108.047 C 89.735 108.021,89.600 108.180,89.600 108.400 C 89.600 108.620,89.240 108.800,88.800 108.800 C 88.360 108.800,88.000 108.980,88.000 109.200 C 88.000 109.420,87.629 109.600,87.176 109.600 C 86.723 109.600,86.464 109.780,86.600 110.000 C 86.740 110.227,86.404 110.400,85.824 110.400 C 85.261 110.400,84.800 110.580,84.800 110.800 C 84.800 111.020,84.530 111.200,84.200 111.200 C 83.870 111.200,83.600 111.342,83.600 111.515 C 83.600 111.688,83.240 111.857,82.800 111.890 C 82.360 111.923,82.000 111.781,82.000 111.575 C 82.000 111.369,82.281 111.200,82.624 111.200 C 82.967 111.200,83.136 111.020,83.000 110.800 C 82.778 110.440,83.303 110.227,84.100 110.353 C 84.265 110.379,84.400 110.130,84.400 109.800 C 84.400 109.470,84.625 109.245,84.900 109.300 C 85.175 109.355,85.351 109.162,85.290 108.870 C 85.230 108.579,85.337 108.438,85.530 108.556 C 85.965 108.825,87.600 107.344,87.600 106.681 C 87.600 106.412,87.960 105.968,88.400 105.693 C 88.874 105.397,89.200 105.357,89.200 105.597 C 89.200 105.818,89.020 106.000,88.800 106.000 C 88.580 106.000,88.405 106.225,88.411 106.500 C 88.417 106.775,89.137 106.220,90.011 105.266 C 90.885 104.312,91.600 103.746,91.600 104.008 C 91.600 104.270,92.122 103.926,92.760 103.242 C 93.399 102.559,94.209 102.000,94.560 102.000 C 94.933 102.000,95.200 101.666,95.200 101.200 C 95.200 100.576,95.467 100.400,96.413 100.400 C 97.297 100.400,97.724 100.156,97.988 99.500 C 98.187 99.005,98.361 98.831,98.375 99.114 C 98.389 99.396,98.934 99.081,99.587 98.414 C 100.239 97.746,101.049 97.200,101.387 97.200 C 101.724 97.200,102.000 96.941,102.000 96.624 C 102.000 96.307,102.208 95.919,102.462 95.762 C 102.748 95.585,102.815 95.652,102.638 95.938 C 102.470 96.210,102.604 96.400,102.964 96.400 C 103.333 96.400,103.487 96.171,103.352 95.820 C 103.184 95.382,103.379 95.285,104.150 95.425 C 104.951 95.571,105.297 95.374,105.769 94.505 C 106.098 93.897,106.375 93.656,106.384 93.970 C 106.396 94.381,106.658 94.297,107.326 93.670 C 107.835 93.191,108.566 92.800,108.949 92.800 C 109.333 92.800,109.536 92.620,109.400 92.400 C 109.264 92.180,109.522 92.000,109.973 92.000 C 110.424 92.000,111.012 91.649,111.280 91.220 C 111.642 90.641,111.900 90.551,112.284 90.869 C 112.653 91.176,112.800 91.170,112.800 90.849 C 112.800 90.602,113.042 90.400,113.338 90.400 C 113.634 90.400,114.202 90.040,114.600 89.600 C 114.998 89.160,115.656 88.800,116.062 88.800 C 116.487 88.800,116.812 88.504,116.828 88.100 C 116.852 87.501,116.906 87.516,117.200 88.200 C 117.389 88.640,117.556 88.818,117.572 88.596 C 117.587 88.374,117.979 87.956,118.442 87.667 C 119.139 87.231,119.232 87.232,118.983 87.670 C 118.741 88.096,118.788 88.102,119.221 87.700 C 119.518 87.425,120.084 87.200,120.480 87.200 C 120.876 87.200,121.200 86.947,121.200 86.637 C 121.200 86.262,121.500 86.141,122.100 86.272 C 122.823 86.431,122.882 86.385,122.400 86.041 C 121.923 85.700,122.060 85.611,123.071 85.606 C 123.771 85.603,124.613 85.330,124.943 85.000 C 125.273 84.670,125.836 84.400,126.195 84.400 C 126.554 84.400,126.736 84.220,126.600 84.000 C 126.458 83.770,126.832 83.595,127.476 83.587 C 128.094 83.580,128.932 83.323,129.339 83.015 C 129.745 82.707,130.330 82.552,130.639 82.670 C 130.947 82.789,131.200 82.686,131.200 82.443 C 131.200 82.199,131.639 82.000,132.176 82.000 C 132.713 82.000,133.264 81.820,133.400 81.600 C 133.536 81.380,134.162 81.200,134.790 81.200 C 135.419 81.200,135.993 81.026,136.067 80.813 C 136.140 80.600,136.780 80.382,137.490 80.328 C 138.199 80.275,138.863 80.013,138.965 79.747 C 139.067 79.480,139.502 79.354,139.930 79.466 C 140.359 79.578,140.831 79.474,140.978 79.235 C 141.126 78.996,141.537 78.800,141.892 78.800 C 142.247 78.800,142.897 78.485,143.337 78.100 C 143.826 77.673,144.007 77.621,143.803 77.968 C 143.550 78.398,143.639 78.471,144.167 78.268 C 144.551 78.121,145.323 78.000,145.882 78.000 C 146.649 78.000,146.796 77.878,146.483 77.500 C 146.162 77.113,146.489 76.991,147.934 76.961 C 150.235 76.913,153.090 76.167,153.839 75.418 C 154.491 74.766,154.578 74.000,154.000 74.000 C 153.780 74.000,153.600 73.436,153.600 72.747 C 153.600 72.058,153.285 71.203,152.900 70.847 C 152.218 70.217,151.915 69.517,151.882 68.500 C 151.874 68.225,151.717 68.000,151.533 68.000 C 151.350 68.000,151.200 67.666,151.200 67.258 C 151.200 66.315,145.320 65.968,144.744 66.877 C 144.475 67.300,144.411 67.295,144.406 66.851 C 144.401 66.386,144.297 66.386,143.723 66.851 C 143.263 67.224,143.143 67.240,143.347 66.900 C 143.702 66.308,143.515 66.246,142.980 66.779 M318.400 111.800 C 318.821 112.307,318.737 112.400,317.862 112.400 C 317.105 112.400,316.887 112.238,317.055 111.800 C 317.182 111.470,317.424 111.200,317.594 111.200 C 317.763 111.200,318.126 111.470,318.400 111.800 M143.930 184.310 C 144.221 184.370,144.345 184.235,144.206 184.010 C 144.047 183.753,144.641 183.600,145.800 183.600 C 146.816 183.600,147.560 183.742,147.452 183.915 C 147.345 184.089,148.275 184.273,149.518 184.325 C 151.024 184.388,151.890 184.618,152.112 185.014 C 152.312 185.372,152.822 185.539,153.399 185.435 C 153.929 185.338,154.563 185.514,154.826 185.831 C 155.085 186.144,155.546 186.400,155.849 186.400 C 156.152 186.400,156.400 186.580,156.400 186.800 C 156.400 187.020,156.599 187.200,156.843 187.200 C 157.099 187.200,157.173 186.907,157.019 186.505 C 156.796 185.923,156.878 185.940,157.525 186.605 C 157.950 187.042,158.220 187.535,158.125 187.700 C 158.030 187.865,158.323 188.000,158.776 188.000 C 159.229 188.000,159.600 188.180,159.600 188.400 C 159.600 188.620,159.830 188.800,160.112 188.800 C 160.393 188.800,160.880 189.156,161.194 189.591 C 161.603 190.159,161.848 190.246,162.061 189.901 C 162.261 189.577,162.488 189.744,162.754 190.410 C 162.971 190.954,163.161 191.243,163.175 191.052 C 163.189 190.860,163.964 191.490,164.897 192.452 C 165.830 193.413,166.542 194.428,166.478 194.706 C 166.414 194.985,166.506 195.188,166.681 195.159 C 167.545 195.014,167.953 195.258,167.746 195.797 C 167.615 196.137,167.792 196.499,168.158 196.639 C 168.511 196.775,168.800 197.316,168.800 197.843 C 168.800 198.369,168.980 198.800,169.200 198.800 C 169.420 198.800,169.600 199.094,169.600 199.454 C 169.600 199.814,170.009 200.489,170.508 200.954 C 171.007 201.419,171.354 202.114,171.279 202.499 C 171.189 202.958,171.330 203.125,171.692 202.986 C 172.114 202.824,172.203 203.114,172.072 204.233 C 171.970 205.105,172.094 205.811,172.379 205.987 C 172.642 206.150,172.912 206.977,172.979 207.825 C 173.047 208.673,173.304 209.435,173.551 209.517 C 173.798 209.599,174.000 210.372,174.000 211.233 C 174.000 212.095,174.180 212.800,174.400 212.800 C 174.620 212.800,174.800 212.991,174.800 213.224 C 174.800 213.457,174.620 213.536,174.400 213.400 C 174.162 213.253,174.000 213.729,174.000 214.576 C 174.000 215.359,174.180 216.000,174.400 216.000 C 174.620 216.000,174.800 216.641,174.800 217.424 C 174.800 218.347,174.647 218.753,174.365 218.578 C 174.085 218.405,173.958 218.718,174.008 219.455 C 174.227 222.705,173.989 224.800,173.400 224.800 C 173.000 224.800,172.800 225.200,172.800 226.000 C 172.800 226.660,172.620 227.200,172.400 227.200 C 172.180 227.200,172.000 227.725,172.000 228.367 C 172.000 229.008,171.810 229.597,171.578 229.674 C 171.346 229.751,171.121 230.470,171.078 231.271 C 171.035 232.072,170.934 232.662,170.852 232.582 C 170.631 232.366,169.600 233.483,169.600 233.938 C 169.600 234.155,169.825 234.424,170.100 234.535 C 170.375 234.646,170.187 234.751,169.682 234.768 C 169.178 234.786,168.794 235.025,168.830 235.300 C 168.958 236.284,168.794 236.844,168.443 236.626 C 168.246 236.505,167.971 236.862,167.831 237.419 C 167.691 237.977,167.401 238.324,167.185 238.191 C 166.970 238.058,166.673 238.276,166.525 238.675 C 166.377 239.074,165.928 239.691,165.528 240.047 C 165.127 240.403,164.800 240.894,164.800 241.139 C 164.800 241.384,164.351 241.697,163.803 241.835 C 163.254 241.973,162.912 242.258,163.043 242.470 C 163.174 242.681,162.887 242.957,162.406 243.082 C 161.747 243.255,161.664 243.394,162.066 243.649 C 162.475 243.909,162.436 243.989,161.900 243.994 C 161.515 243.997,161.200 244.180,161.200 244.400 C 161.200 244.620,160.840 244.800,160.400 244.800 C 159.960 244.800,159.599 244.935,159.597 245.100 C 159.593 245.459,157.656 246.400,156.920 246.400 C 156.634 246.400,156.400 246.580,156.400 246.800 C 156.400 247.020,156.040 247.200,155.600 247.200 C 155.160 247.200,154.800 247.380,154.800 247.600 C 154.800 247.820,154.517 248.000,154.171 248.000 C 153.826 248.000,153.260 248.283,152.913 248.630 C 152.519 249.024,152.189 249.106,152.031 248.851 C 151.892 248.626,151.547 248.586,151.264 248.761 C 150.980 248.936,150.309 248.995,149.772 248.893 C 149.235 248.790,148.497 248.952,148.133 249.253 C 147.615 249.680,147.433 249.690,147.302 249.300 C 147.209 249.025,146.958 248.800,146.743 248.800 C 146.528 248.800,146.463 248.978,146.597 249.195 C 146.737 249.422,146.577 249.489,146.221 249.353 C 145.850 249.210,145.595 249.333,145.587 249.657 C 145.579 250.012,145.355 249.922,144.941 249.400 C 144.503 248.846,144.251 248.754,144.121 249.100 C 144.018 249.375,143.758 249.600,143.543 249.600 C 143.328 249.600,143.253 249.438,143.375 249.240 C 143.497 249.042,142.833 248.781,141.899 248.659 C 138.640 248.233,137.191 247.909,136.973 247.556 C 136.852 247.360,136.403 247.200,135.976 247.200 C 135.549 247.200,135.200 247.020,135.200 246.800 C 135.200 246.580,134.861 246.400,134.446 246.400 C 134.031 246.400,133.176 246.131,132.546 245.802 C 131.916 245.474,131.541 245.204,131.714 245.202 C 131.887 245.201,131.617 244.777,131.114 244.259 C 130.611 243.742,129.977 243.401,129.703 243.501 C 129.430 243.601,129.080 243.349,128.926 242.942 C 128.566 241.992,127.784 241.200,127.205 241.200 C 126.956 241.200,126.852 241.039,126.974 240.842 C 127.096 240.645,126.925 240.380,126.594 240.253 C 126.264 240.126,125.780 239.555,125.520 238.985 C 125.196 238.274,124.819 238.006,124.324 238.136 C 123.926 238.240,123.600 238.162,123.600 237.963 C 123.600 237.763,123.787 237.600,124.016 237.600 C 124.256 237.600,124.213 237.364,123.916 237.042 C 123.632 236.735,123.265 236.566,123.100 236.666 C 122.935 236.765,122.800 236.586,122.800 236.266 C 122.800 235.947,122.559 235.593,122.264 235.480 C 121.969 235.367,121.759 234.861,121.796 234.357 C 121.836 233.812,121.403 232.990,120.732 232.333 C 119.937 231.556,119.600 230.830,119.600 229.893 C 119.600 229.160,119.375 228.318,119.100 228.021 C 118.700 227.590,118.700 227.539,119.100 227.765 C 119.375 227.920,119.600 227.857,119.600 227.624 C 119.600 227.391,119.420 227.200,119.200 227.200 C 118.980 227.200,118.800 226.480,118.800 225.600 C 118.800 224.720,118.620 224.000,118.400 224.000 C 118.180 224.000,118.000 223.179,118.000 222.176 C 118.000 221.153,117.837 220.454,117.628 220.583 C 117.423 220.709,117.142 220.630,117.004 220.407 C 116.866 220.183,117.003 220.000,117.310 220.000 C 117.616 220.000,117.867 219.733,117.867 219.406 C 117.867 218.999,117.720 218.935,117.400 219.200 C 117.081 219.465,116.933 219.405,116.933 219.011 C 116.933 218.694,117.171 218.343,117.462 218.231 C 117.846 218.084,117.891 217.765,117.625 217.065 C 117.381 216.423,117.409 215.951,117.709 215.651 C 118.044 215.316,117.965 215.200,117.404 215.200 C 116.670 215.200,116.671 215.181,117.424 214.570 C 117.851 214.224,117.975 214.055,117.700 214.194 C 117.425 214.333,117.200 214.361,117.200 214.256 C 117.200 214.151,117.091 213.781,116.957 213.433 C 116.821 213.079,116.920 212.800,117.181 212.800 C 117.437 212.800,117.536 212.980,117.400 213.200 C 117.264 213.420,117.359 213.600,117.612 213.600 C 117.914 213.600,117.999 213.082,117.859 212.085 C 117.743 211.252,117.806 210.313,118.001 209.999 C 118.213 209.655,118.191 209.230,117.946 208.934 C 117.665 208.596,117.682 208.216,117.999 207.721 C 118.402 207.091,118.433 207.087,118.248 207.687 C 118.131 208.065,118.169 208.457,118.333 208.558 C 118.496 208.660,118.669 208.279,118.716 207.712 C 118.763 207.145,118.980 206.465,119.200 206.200 C 119.419 205.936,119.532 205.148,119.450 204.449 C 119.337 203.479,119.528 203.000,120.251 202.431 C 120.806 201.995,121.200 201.262,121.200 200.665 C 121.200 200.065,121.566 199.389,122.089 199.023 C 122.609 198.658,122.750 198.400,122.428 198.400 C 122.072 198.400,122.182 198.136,122.739 197.653 C 123.212 197.242,123.600 196.702,123.600 196.453 C 123.600 196.204,123.780 196.000,124.000 196.000 C 124.220 196.000,124.400 195.640,124.400 195.200 C 124.400 194.760,124.593 194.400,124.829 194.400 C 125.276 194.400,126.600 193.225,126.600 192.829 C 126.600 192.703,126.724 192.641,126.876 192.692 C 127.027 192.742,127.264 192.427,127.403 191.992 C 127.541 191.556,127.922 191.200,128.251 191.200 C 128.579 191.200,128.744 191.033,128.618 190.829 C 128.491 190.624,128.796 190.399,129.294 190.329 C 129.885 190.245,130.204 189.922,130.211 189.400 C 130.219 188.814,130.460 188.625,131.111 188.695 C 131.600 188.748,132.000 188.613,132.000 188.395 C 132.000 188.178,132.315 187.997,132.700 187.994 C 133.298 187.989,133.313 187.931,132.800 187.600 C 132.285 187.267,132.299 187.204,132.900 187.156 C 133.716 187.091,133.826 187.069,135.355 186.663 C 135.990 186.495,137.087 185.917,137.792 185.379 C 138.498 184.840,139.228 184.400,139.414 184.400 C 139.600 184.400,139.404 184.664,138.976 184.987 C 138.262 185.528,138.257 185.576,138.913 185.587 C 139.304 185.594,139.729 185.330,139.855 185.000 C 139.997 184.630,140.605 184.400,141.443 184.400 C 142.259 184.400,142.802 184.201,142.806 183.900 C 142.810 183.590,142.924 183.552,143.106 183.800 C 143.268 184.020,143.638 184.249,143.930 184.310 M251.400 184.000 C 251.264 184.220,251.523 184.400,251.976 184.400 C 252.429 184.400,252.800 184.220,252.800 184.000 C 252.800 183.780,253.430 183.600,254.200 183.600 C 254.970 183.600,255.600 183.780,255.600 184.000 C 255.600 184.220,256.590 184.400,257.800 184.400 C 259.082 184.400,260.000 184.577,260.000 184.824 C 260.000 185.057,260.180 185.136,260.400 185.000 C 260.620 184.864,260.800 184.963,260.800 185.219 C 260.800 185.476,261.048 185.591,261.350 185.474 C 261.653 185.358,262.379 185.511,262.963 185.815 C 263.591 186.141,263.914 186.184,263.751 185.921 C 263.567 185.622,263.661 185.592,264.038 185.828 C 264.347 186.022,264.952 186.122,265.381 186.051 C 266.055 185.940,266.090 186.010,265.632 186.561 C 265.174 187.113,265.221 187.200,265.975 187.200 C 266.455 187.200,266.736 187.380,266.600 187.600 C 266.464 187.820,266.723 188.000,267.176 188.000 C 267.629 188.000,268.000 188.180,268.000 188.400 C 268.000 188.620,268.360 188.800,268.800 188.800 C 269.240 188.800,269.600 189.059,269.600 189.376 C 269.600 189.693,269.808 190.081,270.062 190.238 C 270.369 190.428,270.420 190.336,270.213 189.962 C 270.042 189.653,270.624 190.165,271.505 191.100 C 272.386 192.035,273.409 192.800,273.777 192.800 C 274.146 192.800,274.336 192.980,274.200 193.200 C 274.064 193.420,274.143 193.600,274.376 193.600 C 274.609 193.600,274.800 193.971,274.800 194.424 C 274.800 194.877,274.980 195.136,275.200 195.000 C 275.420 194.864,275.600 195.033,275.600 195.376 C 275.600 195.719,275.780 196.000,276.000 196.000 C 276.220 196.000,276.400 196.193,276.400 196.429 C 276.400 196.875,277.351 197.966,277.871 198.114 C 278.036 198.161,278.116 198.715,278.050 199.345 C 277.972 200.091,278.082 200.397,278.365 200.222 C 278.637 200.054,278.811 200.374,278.828 201.076 C 278.853 202.065,278.898 202.104,279.200 201.400 C 279.568 200.543,279.670 200.679,279.722 202.100 C 279.741 202.595,279.929 203.118,280.140 203.262 C 280.351 203.406,280.508 204.084,280.489 204.769 C 280.469 205.454,280.581 205.935,280.738 205.838 C 280.895 205.741,281.214 206.270,281.447 207.014 C 281.680 207.758,281.720 208.274,281.535 208.160 C 281.351 208.046,281.200 208.218,281.200 208.543 C 281.200 208.868,281.408 209.203,281.662 209.287 C 281.958 209.386,282.097 210.348,282.049 211.952 C 282.008 213.333,282.122 214.372,282.302 214.261 C 282.483 214.149,282.690 214.540,282.763 215.129 C 283.054 217.480,282.991 218.198,282.500 218.100 C 282.199 218.040,282.000 218.429,282.000 219.076 C 282.000 220.099,282.028 220.115,282.562 219.384 C 283.088 218.665,283.111 218.685,282.916 219.703 C 282.802 220.301,282.541 220.687,282.336 220.560 C 282.126 220.430,282.002 220.998,282.052 221.865 C 282.101 222.709,281.929 223.793,281.670 224.274 C 281.412 224.754,281.200 225.599,281.200 226.150 C 281.200 226.702,281.020 227.264,280.800 227.400 C 280.580 227.536,280.400 228.104,280.400 228.662 C 280.400 229.220,280.005 230.232,279.521 230.910 C 279.038 231.589,278.858 232.011,279.121 231.849 C 279.933 231.347,279.649 232.188,278.800 232.800 C 278.360 233.117,278.000 233.697,278.000 234.088 C 278.000 234.480,277.820 234.800,277.600 234.800 C 277.380 234.800,277.200 235.088,277.200 235.440 C 277.200 235.791,276.651 236.592,275.980 237.218 C 275.309 237.845,274.796 238.476,274.838 238.621 C 274.952 239.005,273.883 240.400,273.476 240.400 C 272.989 240.400,271.629 242.092,271.613 242.718 C 271.606 243.002,271.285 243.182,270.900 243.118 C 270.433 243.039,270.158 243.299,270.072 243.900 C 269.980 244.551,269.676 244.800,268.972 244.800 C 268.437 244.800,268.000 244.980,268.000 245.200 C 268.000 245.420,267.717 245.600,267.371 245.600 C 267.026 245.600,266.471 245.872,266.139 246.204 C 265.807 246.536,265.370 246.705,265.168 246.580 C 264.965 246.455,264.800 246.543,264.800 246.776 C 264.800 247.009,264.350 247.200,263.800 247.200 C 263.250 247.200,262.800 247.380,262.800 247.600 C 262.800 247.820,262.429 248.000,261.976 248.000 C 261.523 248.000,261.251 248.159,261.371 248.353 C 261.491 248.547,260.858 248.716,259.965 248.728 C 259.072 248.741,258.085 248.964,257.771 249.224 C 257.363 249.562,257.200 249.569,257.200 249.249 C 257.200 249.002,256.739 248.800,256.176 248.800 C 255.613 248.800,255.242 248.944,255.351 249.120 C 255.459 249.296,254.942 249.440,254.200 249.440 C 253.458 249.440,252.953 249.276,253.077 249.075 C 253.207 248.866,252.512 248.789,251.447 248.895 C 250.341 249.006,249.184 248.869,248.582 248.557 C 247.843 248.174,247.646 248.163,247.846 248.517 C 248.043 248.867,247.969 248.862,247.579 248.500 C 247.282 248.225,246.570 248.000,245.995 248.000 C 245.421 248.000,244.595 247.685,244.160 247.300 C 243.725 246.915,243.106 246.542,242.784 246.470 C 242.463 246.399,242.140 246.174,242.067 245.970 C 241.993 245.767,241.498 245.600,240.967 245.600 C 240.435 245.600,240.000 245.427,240.000 245.216 C 240.000 244.543,237.821 242.784,237.255 243.000 C 236.896 243.138,236.790 243.004,236.943 242.605 C 237.085 242.234,236.947 242.000,236.587 242.000 C 236.264 242.000,236.000 241.809,236.000 241.576 C 236.000 241.343,235.789 241.283,235.532 241.442 C 235.220 241.635,235.147 241.516,235.312 241.086 C 235.486 240.633,235.387 240.507,234.980 240.663 C 234.661 240.786,234.400 240.673,234.400 240.414 C 234.400 240.155,234.128 239.671,233.796 239.339 C 233.464 239.007,233.295 238.570,233.420 238.368 C 233.545 238.165,233.277 238.000,232.824 238.000 C 232.267 238.000,232.000 237.741,232.000 237.200 C 232.000 236.760,231.820 236.400,231.600 236.400 C 231.380 236.400,231.200 236.136,231.200 235.813 C 231.200 235.487,230.962 235.316,230.667 235.430 C 230.274 235.580,230.180 235.318,230.309 234.436 C 230.460 233.411,230.334 233.199,229.443 232.975 C 228.683 232.784,228.400 232.454,228.400 231.757 C 228.400 231.230,228.256 230.800,228.080 230.800 C 227.904 230.800,227.834 230.168,227.925 229.396 C 228.068 228.166,227.996 228.024,227.344 228.254 C 226.777 228.455,226.706 228.403,227.044 228.034 C 227.551 227.483,227.145 224.961,226.566 225.066 C 226.360 225.104,226.200 222.855,226.200 219.916 C 226.200 216.111,226.065 214.647,225.700 214.506 C 225.425 214.401,225.200 213.939,225.200 213.481 C 225.200 212.662,225.210 212.661,225.787 213.424 C 226.349 214.166,226.375 214.151,226.387 213.076 C 226.396 212.282,226.254 212.041,225.900 212.253 C 225.509 212.488,225.511 212.417,225.907 211.927 C 226.186 211.583,226.310 211.032,226.184 210.702 C 226.057 210.373,226.234 209.823,226.577 209.480 C 226.920 209.137,227.200 208.214,227.200 207.429 C 227.200 206.643,227.380 206.000,227.600 206.000 C 227.820 206.000,228.000 205.730,228.000 205.400 C 228.000 205.070,227.792 204.800,227.539 204.800 C 227.285 204.800,227.493 204.440,228.000 204.000 C 228.524 203.546,228.697 203.200,228.400 203.200 C 228.094 203.200,228.240 202.886,228.753 202.441 C 229.234 202.024,229.600 201.529,229.566 201.341 C 229.407 200.453,229.634 199.174,229.920 199.351 C 230.096 199.459,230.457 199.200,230.723 198.774 C 231.105 198.163,231.101 197.997,230.703 197.988 C 230.427 197.981,230.560 197.769,231.000 197.517 C 232.237 196.808,232.829 195.867,232.266 195.509 C 231.970 195.321,232.080 195.210,232.567 195.206 C 232.988 195.203,233.228 195.095,233.099 194.966 C 232.816 194.683,234.392 192.800,234.912 192.800 C 235.465 192.800,237.600 190.394,237.600 189.770 C 237.600 189.450,237.848 189.320,238.200 189.455 C 238.530 189.582,238.800 189.486,238.800 189.243 C 238.800 188.999,239.205 188.797,239.700 188.794 C 240.428 188.789,240.485 188.714,240.000 188.400 C 239.545 188.106,239.714 188.011,240.700 188.006 C 241.524 188.002,241.963 187.817,241.900 187.500 C 241.838 187.191,242.145 187.048,242.700 187.125 C 243.195 187.194,243.600 187.059,243.600 186.825 C 243.600 186.591,243.982 186.400,244.449 186.400 C 245.137 186.400,245.209 186.292,244.826 185.831 C 244.437 185.363,244.507 185.303,245.228 185.491 C 245.803 185.642,246.228 185.494,246.472 185.057 C 246.761 184.542,247.015 184.487,247.621 184.811 C 248.156 185.098,248.400 185.099,248.400 184.814 C 248.400 184.586,248.940 184.400,249.600 184.400 C 250.260 184.400,250.800 184.220,250.800 184.000 C 250.800 183.780,250.991 183.600,251.224 183.600 C 251.457 183.600,251.536 183.780,251.400 184.000 M226.800 208.224 C 226.800 208.541,226.631 208.800,226.425 208.800 C 226.219 208.800,226.076 208.452,226.108 208.028 C 226.174 207.156,226.800 207.333,226.800 208.224 M71.014 270.378 C 70.899 270.564,71.099 270.829,71.460 270.968 C 71.820 271.106,72.003 271.330,71.867 271.466 C 71.516 271.818,70.363 270.783,70.628 270.355 C 70.749 270.160,70.567 270.000,70.224 270.000 C 69.881 270.000,69.600 269.814,69.600 269.586 C 69.600 269.307,69.865 269.314,70.411 269.606 C 70.857 269.845,71.128 270.192,71.014 270.378 M329.913 270.390 C 329.512 271.032,328.856 271.481,327.077 272.328 C 326.900 272.413,327.197 272.040,327.737 271.499 C 328.278 270.958,329.020 270.401,329.385 270.261 C 329.763 270.116,329.927 269.805,329.764 269.541 C 329.587 269.255,329.651 269.184,329.930 269.357 C 330.267 269.565,330.262 269.831,329.913 270.390 " stroke="none" fill="#8c9cfc" fill-rule="evenodd"></path><path id="path1" d="M282.003 72.686 C 282.006 73.021,283.901 74.000,284.546 74.000 C 284.966 74.000,284.505 73.409,284.067 73.386 C 283.920 73.378,283.395 73.147,282.900 72.872 C 282.405 72.597,282.001 72.513,282.003 72.686 M323.466 92.293 C 323.330 92.513,323.557 92.999,323.970 93.373 C 324.569 93.915,324.782 93.946,325.024 93.526 C 325.192 93.237,325.174 93.141,324.985 93.313 C 324.796 93.484,324.433 93.235,324.178 92.759 C 323.923 92.282,323.603 92.072,323.466 92.293 M96.600 105.200 C 96.464 105.420,96.734 105.600,97.200 105.600 C 97.666 105.600,97.936 105.420,97.800 105.200 C 97.664 104.980,97.394 104.800,97.200 104.800 C 97.006 104.800,96.736 104.980,96.600 105.200 M360.239 158.338 C 360.100 158.561,360.182 158.865,360.420 159.012 C 361.035 159.393,361.432 158.872,360.918 158.358 C 360.631 158.071,360.407 158.064,360.239 158.338 M363.606 168.900 C 363.603 169.505,363.780 170.000,364.000 170.000 C 364.506 170.000,364.506 169.183,364.000 168.400 C 363.698 167.932,363.611 168.043,363.606 168.900 M264.800 186.649 C 264.800 187.180,264.909 187.208,265.400 186.800 C 265.730 186.526,266.000 186.234,266.000 186.151 C 266.000 186.068,265.730 186.000,265.400 186.000 C 265.070 186.000,264.800 186.292,264.800 186.649 M28.644 196.566 C 28.848 197.100,28.795 197.244,28.468 197.042 C 28.211 196.883,28.000 196.943,28.000 197.176 C 28.000 197.729,28.677 197.722,29.022 197.165 C 29.169 196.926,29.079 196.521,28.821 196.265 C 28.464 195.910,28.422 195.982,28.644 196.566 M116.806 213.100 C 116.809 213.265,116.980 213.665,117.185 213.989 C 117.430 214.377,117.394 214.695,117.079 214.920 C 116.733 215.166,116.757 215.219,117.165 215.109 C 117.805 214.936,118.138 213.600,117.541 213.600 C 117.327 213.600,117.264 213.420,117.400 213.200 C 117.536 212.980,117.457 212.800,117.224 212.800 C 116.991 212.800,116.803 212.935,116.806 213.100 M225.200 213.481 C 225.200 213.939,225.470 214.418,225.800 214.545 C 226.552 214.833,226.547 214.428,225.787 213.424 C 225.210 212.661,225.200 212.662,225.200 213.481 M119.606 230.276 C 119.609 230.674,119.767 231.244,119.956 231.543 C 120.198 231.925,120.300 231.775,120.300 231.035 C 120.300 230.458,120.142 229.888,119.950 229.769 C 119.758 229.650,119.603 229.878,119.606 230.276 M227.868 230.167 C 227.748 230.479,227.872 230.819,228.143 230.923 C 228.418 231.028,228.662 230.777,228.693 230.356 C 228.760 229.473,228.185 229.341,227.868 230.167 M377.600 230.524 C 377.600 230.811,377.868 231.396,378.195 231.824 C 378.738 232.534,378.752 232.489,378.355 231.300 C 377.903 229.943,377.600 229.632,377.600 230.524 M269.300 243.865 C 268.604 244.146,268.673 244.800,269.400 244.800 C 269.730 244.800,270.000 244.530,270.000 244.200 C 270.000 243.870,269.955 243.614,269.900 243.632 C 269.845 243.649,269.575 243.754,269.300 243.865 M145.026 249.158 C 144.905 249.354,145.237 249.489,145.764 249.458 C 146.292 249.426,146.640 249.265,146.538 249.100 C 146.282 248.685,145.295 248.723,145.026 249.158 M381.206 256.900 C 381.211 257.628,381.286 257.685,381.600 257.200 C 382.101 256.424,382.101 256.000,381.600 256.000 C 381.380 256.000,381.203 256.405,381.206 256.900 M382.109 264.409 C 382.076 264.853,382.218 265.113,382.424 264.985 C 382.879 264.704,382.927 263.600,382.485 263.600 C 382.312 263.600,382.143 263.964,382.109 264.409 M69.600 269.586 C 69.600 269.814,69.900 270.000,70.267 270.000 C 70.633 270.000,70.815 270.118,70.670 270.263 C 70.334 270.599,71.153 271.604,71.749 271.588 C 71.997 271.581,71.881 271.390,71.492 271.163 C 71.102 270.936,70.882 270.591,71.003 270.395 C 71.124 270.200,70.857 269.845,70.411 269.606 C 69.865 269.314,69.600 269.307,69.600 269.586 M329.749 269.518 C 329.900 269.761,329.657 270.155,329.211 270.394 C 328.332 270.865,328.076 271.699,328.909 271.380 C 329.764 271.052,330.456 269.682,329.930 269.357 C 329.659 269.189,329.586 269.254,329.749 269.518 M382.806 272.500 C 382.803 273.105,382.980 273.600,383.200 273.600 C 383.706 273.600,383.706 272.783,383.200 272.000 C 382.898 271.532,382.811 271.643,382.806 272.500 M74.500 273.212 C 74.005 273.411,73.600 273.764,73.600 273.996 C 73.600 274.230,74.046 274.126,74.600 273.763 C 75.150 273.403,75.600 273.039,75.600 272.954 C 75.600 272.767,75.617 272.763,74.500 273.212 M320.400 278.400 C 320.400 278.620,320.614 278.800,320.876 278.800 C 321.139 278.800,321.004 279.080,320.576 279.422 C 319.831 280.019,319.836 280.027,320.700 279.608 C 321.712 279.118,321.921 278.000,321.000 278.000 C 320.670 278.000,320.400 278.180,320.400 278.400 M79.484 279.200 C 79.599 279.640,79.941 280.000,80.243 280.000 C 80.663 280.000,80.632 279.813,80.107 279.200 C 79.730 278.760,79.389 278.400,79.349 278.400 C 79.308 278.400,79.369 278.760,79.484 279.200 M314.254 284.233 C 313.623 284.787,313.210 285.343,313.335 285.468 C 313.561 285.695,314.110 285.220,315.149 283.898 C 315.909 282.931,315.605 283.045,314.254 284.233 M98.400 287.191 C 98.400 287.365,98.760 287.601,99.200 287.716 C 99.640 287.831,100.000 287.783,100.000 287.609 C 100.000 287.435,99.640 287.199,99.200 287.084 C 98.760 286.969,98.400 287.017,98.400 287.191 M22.239 289.938 C 22.100 290.161,22.182 290.465,22.420 290.612 C 23.035 290.993,23.432 290.472,22.918 289.958 C 22.631 289.671,22.407 289.664,22.239 289.938 M163.600 306.600 C 163.600 306.930,163.780 307.200,164.000 307.200 C 164.220 307.200,164.400 306.930,164.400 306.600 C 164.400 306.270,164.220 306.000,164.000 306.000 C 163.780 306.000,163.600 306.270,163.600 306.600 M235.232 306.667 C 235.253 307.160,235.334 307.222,235.480 306.855 C 235.663 306.394,235.756 306.394,236.079 306.855 C 236.395 307.305,236.434 307.300,236.305 306.825 C 236.071 305.957,235.195 305.828,235.232 306.667 M52.832 313.051 C 52.783 313.745,53.876 314.525,54.188 314.019 C 54.331 313.789,54.182 313.600,53.857 313.600 C 53.532 313.600,53.176 313.375,53.065 313.100 C 52.938 312.786,52.851 312.768,52.832 313.051 M69.226 321.431 C 69.754 322.068,70.400 322.186,70.400 321.647 C 70.400 321.452,70.030 321.196,69.577 321.078 C 68.902 320.902,68.839 320.965,69.226 321.431 " stroke="none" fill="#8ca4fc" fill-rule="evenodd"></path><path id="path2" d="M145.063 184.100 C 145.318 184.516,147.200 184.479,147.200 184.057 C 147.200 183.869,146.678 183.734,146.039 183.757 C 145.401 183.781,144.962 183.935,145.063 184.100 M252.800 184.093 C 252.800 184.275,253.430 184.383,254.200 184.331 C 254.970 184.279,255.600 184.129,255.600 183.998 C 255.600 183.867,254.970 183.760,254.200 183.760 C 253.430 183.760,252.800 183.910,252.800 184.093 M375.200 216.533 C 375.200 217.120,375.350 217.600,375.533 217.600 C 375.923 217.600,375.877 216.144,375.475 215.741 C 375.324 215.590,375.200 215.947,375.200 216.533 M174.000 216.600 C 174.000 216.930,174.180 217.200,174.400 217.200 C 174.620 217.200,174.800 216.930,174.800 216.600 C 174.800 216.270,174.620 216.000,174.400 216.000 C 174.180 216.000,174.000 216.270,174.000 216.600 " stroke="none" fill="#909cfc" fill-rule="evenodd"></path><path id="path3" d="M145.063 184.100 C 145.318 184.516,147.200 184.479,147.200 184.057 C 147.200 183.869,146.678 183.734,146.039 183.757 C 145.401 183.781,144.962 183.935,145.063 184.100 M252.800 184.093 C 252.800 184.275,253.430 184.383,254.200 184.331 C 254.970 184.279,255.600 184.129,255.600 183.998 C 255.600 183.867,254.970 183.760,254.200 183.760 C 253.430 183.760,252.800 183.910,252.800 184.093 M375.200 216.533 C 375.200 217.120,375.350 217.600,375.533 217.600 C 375.923 217.600,375.877 216.144,375.475 215.741 C 375.324 215.590,375.200 215.947,375.200 216.533 M174.000 216.600 C 174.000 216.930,174.180 217.200,174.400 217.200 C 174.620 217.200,174.800 216.930,174.800 216.600 C 174.800 216.270,174.620 216.000,174.400 216.000 C 174.180 216.000,174.000 216.270,174.000 216.600 " stroke="none" fill="#909cfc" fill-rule="evenodd"></path><path id="path4" d="M145.063 184.100 C 145.318 184.516,147.200 184.479,147.200 184.057 C 147.200 183.869,146.678 183.734,146.039 183.757 C 145.401 183.781,144.962 183.935,145.063 184.100 M252.800 184.093 C 252.800 184.275,253.430 184.383,254.200 184.331 C 254.970 184.279,255.600 184.129,255.600 183.998 C 255.600 183.867,254.970 183.760,254.200 183.760 C 253.430 183.760,252.800 183.910,252.800 184.093 M375.200 216.533 C 375.200 217.120,375.350 217.600,375.533 217.600 C 375.923 217.600,375.877 216.144,375.475 215.741 C 375.324 215.590,375.200 215.947,375.200 216.533 M174.000 216.600 C 174.000 216.930,174.180 217.200,174.400 217.200 C 174.620 217.200,174.800 216.930,174.800 216.600 C 174.800 216.270,174.620 216.000,174.400 216.000 C 174.180 216.000,174.000 216.270,174.000 216.600 " stroke="none" fill="#909cfc" fill-rule="evenodd"></path></g></svg>